<svg xmlns="http://www.w3.org/2000/svg" width="92.1" height="83.72" viewBox="0 0 92.1 83.72">
  <title>Blackspike_Cylinder 3</title>
  <g>
    <path d="M92.08,27.63c.06-9.73-7.48-16.78-15.61-20.95A65.28,65.28,0,0,0,49,0,72.23,72.23,0,0,0,20.89,4.38C12.48,7.59,3.25,13.4.71,22.62-.36,26.48.1,30.82.1,34.77V54.83A20.27,20.27,0,0,0,2.68,65.67a29.45,29.45,0,0,0,10,9.66c8,5,17.54,7.33,26.85,8.11a74.34,74.34,0,0,0,28.81-3.08C77,77.58,86.5,72.47,90.49,63.83,92.25,60,92.1,56.16,92.1,52.08V32.42Q92.1,30,92.08,27.63ZM2.25,24.86c1.39-7.22,7-12.36,13.2-15.78a59.57,59.57,0,0,1,21-6.48,74.78,74.78,0,0,1,21.27.27A55.9,55.9,0,0,1,78,9.83C83.89,13.38,89.75,19,90.08,26.27S85,39.61,79.19,43.39c-6.2,4-13.49,6.33-20.74,7.55a75.14,75.14,0,0,1-21.1.51,60,60,0,0,1-20.94-6.08c-6.15-3.23-12.54-8.3-14-15.48A15.92,15.92,0,0,1,2.25,24.86ZM90,58.27c-1.31,8.65-8.71,14.33-16.19,17.82A64.68,64.68,0,0,1,49,81.66a71.11,71.11,0,0,1-25.1-3.37c-7.7-2.57-16.08-7-20-14.5C2.18,60.48,2.1,57.17,2.1,53.55V34.88c3.21,5.71,8.33,9.74,14.13,12.65a62.94,62.94,0,0,0,19,5.67,75.71,75.71,0,0,0,19.33.31,66.06,66.06,0,0,0,19.21-4.93C79.59,46,85.34,42.25,88.93,36.84a16.18,16.18,0,0,0,1.15-1.95V47C90.1,50.73,90.28,54.53,90,58.27Z"/>
    <path d="M28.58,28.68c2.07,5.95,8.82,8.17,14.55,8.79,5.56.61,12-.32,16.62-3.65,2.34-1.69,4.31-4.33,4-7.35s-2.36-5.31-4.8-6.85c-5-3.15-11.54-3.84-17.27-3-5.25.78-12.75,3.6-13.33,9.78A8.1,8.1,0,0,0,28.58,28.68Zm1.78-2c.76-5.19,7.14-7.44,11.66-8.06,5.06-.69,10.49-.26,15.06,2.19,2.1,1.13,4.36,3,4.71,5.51s-1.63,4.81-3.67,6.19c-4.23,2.85-9.94,3.44-14.89,3C38.71,35,30,32.66,30.37,26.68Z"/>
  </g>
</svg>
