<svg xmlns="http://www.w3.org/2000/svg" width="92.03" height="81.41" viewBox="0 0 92.03 81.41">
  <title>Blackspike_Torus 3</title>
  <path d="M91.43,42.89A13.36,13.36,0,0,0,86,36.35c-3.78-2.59-8.67-3.5-13.29-3.67A57.69,57.69,0,0,0,75.3,19.38c.23-4.12-.17-8.48-2.12-12.18a13.75,13.75,0,0,0-4.46-5.07,13.79,13.79,0,0,0-6.18-2c-4.17-.55-8.58,1.33-12.07,3.46a62.21,62.21,0,0,0-9.8,7.7A36.69,36.69,0,0,0,37,9.89a25.57,25.57,0,0,0-25.36,5.71C5,21.79,1.58,31,.43,39.81A47.11,47.11,0,0,0,4.55,66.65a28.64,28.64,0,0,0,8.31,10.18c3.42,2.54,8.25,4.58,12.57,4.58a32.09,32.09,0,0,0,6.11-.48,32.75,32.75,0,0,0,9.82-3.82,44.24,44.24,0,0,0,4.52-3,19.62,19.62,0,0,0,1.86-1.46c4.45,3.35,9.55,6.13,15.14,6.13a12.44,12.44,0,0,0,8-3.17c3.85-3.45,4.72-9.12,4.38-14-.07-1-.2-2.06-.37-3.08h.44c6.19-.36,12.8-1.84,15.76-7.94A10.11,10.11,0,0,0,91.43,42.89ZM42.86,11.95c.93-.86,1.87-1.68,2.85-2.49a52.26,52.26,0,0,1,5.52-4c3.84-2.41,8-3.75,12.48-3.15,4.13.55,7.19,4,8.49,7.76A26.75,26.75,0,0,1,73,22.36a54.76,54.76,0,0,1-1.22,6.33c-.29,1.13-.58,2.27-.93,3.38-.06.18-.14.38-.21.58h-.33A68.87,68.87,0,0,0,58,34.06c.4-1,.79-2.05,1.13-3.1C61,25.44,62.89,19,61.28,13.23l-.05,0a.24.24,0,0,0-.08-.27,3.94,3.94,0,0,0-.32-.74c-.38.16-1.45.38-1.68.71s0,.64.22,1l0,0a14.93,14.93,0,0,0-1.62.91,8.84,8.84,0,0,0-2.35,1.48,1.69,1.69,0,0,1-.15.18l0,0c-.93.7-1.83,1.43-2.71,2.18l-.13.1a45.6,45.6,0,0,0-9.69-6.62Zm12.5,7c.35-.28.69-.43.81-.66h0A26.84,26.84,0,0,1,59.77,16a17.1,17.1,0,0,1,0,2.85,35.91,35.91,0,0,1-1.1,6.49,62.46,62.46,0,0,0-4.88-5.2C54.33,19.74,54.84,19.31,55.35,18.9Zm-11.2,54c-7.91,5.9-18.87,9.13-27.92,3.75S3.38,61,2.25,50.94c-1.09-9.73,1-20.61,6.51-28.79A26.88,26.88,0,0,1,20,12.39a23.3,23.3,0,0,1,14.12-1.15c9.77,1.94,17.75,9,23.89,16.5v.05c-.5,1.63-1,3.25-1.62,4.84a15.18,15.18,0,0,0-.86,1.94C53.69,35,51.84,35.49,50,36a49.57,49.57,0,0,0-5.17-5.79C39,24.57,28.28,18,21.06,25.15a7.83,7.83,0,0,0-1.64,1.21A8.7,8.7,0,0,0,17,30.56a31.6,31.6,0,0,0-2.8,8.11C12.36,48,13.4,61.93,22.67,67.14a2.94,2.94,0,0,0,1.18.47,11.48,11.48,0,0,0,3,.35,15.49,15.49,0,0,0,5.09-1.12c-.05-.14-.1-.32-.14-.5.1.16.19.32.26.46a39.08,39.08,0,0,0,5.49-3.33c2.16,2.22,4.39,4.35,6.74,6.36.59.51,1.2,1,1.83,1.52C45.47,71.86,44.82,72.37,44.15,72.87ZM28.7,24.66a17.33,17.33,0,0,0-1.87-.37l.23-.06A9.82,9.82,0,0,1,29.17,24Zm2.87-.32a21.78,21.78,0,0,1,7.65,3.79c.84.61,1.64,1.26,2.41,1.93l-.49.61c-1.15-.58-2.3-1.16-3.42-1.77a64,64,0,0,0-6.9-3.56A5,5,0,0,0,31.57,24.34ZM43.2,31.5l.45.45-.58-.3Zm-23,10.6a100.71,100.71,0,0,0,9,12l1.49,1.79a16.29,16.29,0,0,1-2.63.58,11.16,11.16,0,0,1-3.55-.34,7.72,7.72,0,0,1-5.09-4.44,11,11,0,0,1-.26-6.59A15.45,15.45,0,0,1,20.2,42.1Zm-3,2.64c-.78,3.57-.52,6.93,1.72,9.91,2.05,2.73,5.42,3.83,8.74,3.83a22.21,22.21,0,0,0,4.28-.63l.39-.07q1.86,2.14,3.8,4.21c-.67.43-1.32,1-2,1.38s-1.75.84-2.49,1.38c-.51.37-.42.09-.35.46-.2-.28-.06-.22-.64,0a17.54,17.54,0,0,1-2.42.66,9.59,9.59,0,0,1-4.68-.44h0c-.29-.4-1.4-.85-1.81-1.19A13.47,13.47,0,0,1,19,60.85c-2.78-4.58-3.67-10.37-3.5-15.66a36.08,36.08,0,0,1,1.13-8.08c.14-.54.31-1.07.49-1.6,0,.15.07.31.13.46a31.41,31.41,0,0,0,1.74,4A22.8,22.8,0,0,0,17.18,44.74ZM68.45,74.87C60.75,80.27,51,73,45.17,68A124.18,124.18,0,0,1,27.4,48.65c-2.7-3.6-5.79-7.31-7.52-11.5A10.53,10.53,0,0,1,18.8,31.6a.46.46,0,0,0,0-.14,6.15,6.15,0,0,1,.19-.8,6.59,6.59,0,0,1,3.29-3.87l.1,0A6.27,6.27,0,0,1,24,26.22c4.29-.83,8.63,2.23,12.21,4.16,3.87,2.08,7.76,4.12,11.65,6.16l.07.08c-3.44,1-6.85,2.14-10.25,3.28-.79-1-1.57-2.09-2.31-3.18-.91-1.34-1.83-2.67-2.62-4.09a12.88,12.88,0,0,0-1-2.11c-.34-.39-.22-.31-.82-.05L29.66,31c.15.36.31.71.48,1.06h0a49.45,49.45,0,0,0,4.95,7.84A130.78,130.78,0,0,0,46.6,53.45c4.21,4.34,8.66,8.49,14,11.35v0h0a9.77,9.77,0,0,0,2.41.59l0-.24a.75.75,0,0,0,.12-.72l.16-1a4.87,4.87,0,0,1-.5-.14l0-.1a.6.6,0,0,0-.19,0c-.28-.09-.59-.18-.83-.23a31.29,31.29,0,0,0-.9-5.45c.77-1.14,1.52-2.28,2.24-3.46.86-1.41,1.67-2.84,2.46-4.29a11.82,11.82,0,0,0,.85-1.46l.26,0c1.08-.08,2.15-.12,3.21-.13.27.71.55,1.41.79,2.13C73.23,57.67,76.13,69.48,68.45,74.87ZM59.72,62q-.57-.34-1.11-.7l-.24-.18c.34-.46.67-.93,1-1.4C59.51,60.5,59.63,61.25,59.72,62Zm.6-7.17c-.8,1.25-1.63,2.5-2.5,3.7-.2.28-.77.84-1.18,1.36q-1.13-.87-2.22-1.78c-2.06-1.72-4-3.58-5.93-5.51,3.09-1,6.18-1.92,9.33-2.68,1.8-.44,3.6-.85,5.43-1.16l.64-.09C62.78,50.78,61.6,52.84,60.32,54.84Zm26.91-2.36A13.84,13.84,0,0,1,80.12,56a34.4,34.4,0,0,1-4.33.45c-.24,0-.8-.05-1.28-.07a60.41,60.41,0,0,0-2.43-8.18,26.51,26.51,0,0,1,4.54.64h0a5.85,5.85,0,0,0,1.17.64c.14.16.33.34.41.44l.18-.15.34.18.64-1,.38-.31-.09-.13.16-.24a15.07,15.07,0,0,0-1.67-.92l.06-.17c-3.51-1.38-7.73-1.17-11.45-.9v0l-.31,0h-.16A125.71,125.71,0,0,0,47,51c-1.94-2.06-3.8-4.2-5.57-6.37q-1.22-1.5-2.42-3c.27-.12.51-.23.64-.28,1.87-.63,3.73-1.27,5.61-1.88,3-1,6.13-1.79,9.22-2.59a67.91,67.91,0,0,1,16.11-2.22c5.49-.06,11.2.9,15.67,4.25A8.89,8.89,0,0,1,87.24,52.48Z"/>
</svg>
