<svg xmlns="http://www.w3.org/2000/svg" width="92.07" height="90.69" viewBox="0 0 92.07 90.69">
  <title>Blackspike_Cylinder 2</title>
  <g>
    <path d="M92.06,27.64C92.12,17.37,83.78,10.14,75.15,6c-9-4.26-19.07-6-29-6A68.1,68.1,0,0,0,17.32,5.88C8.79,9.86.22,17,.07,27.15c-.16,11.63,0,23.27,0,34.91A20,20,0,0,0,2.79,72.9a30,30,0,0,0,10.76,9.93c8.6,5,18.66,7.3,28.53,7.76a72.25,72.25,0,0,0,29.77-4.51c8.68-3.41,18.33-9.82,20-19.72a28,28,0,0,0,.23-4.69V32.47Q92.07,30.05,92.06,27.64ZM2.23,24.87C3.61,17.69,9.18,12.56,15.35,9.14A59.35,59.35,0,0,1,36.42,2.61a75.06,75.06,0,0,1,21.16.26A56.31,56.31,0,0,1,77.79,9.71c5.91,3.51,11.91,9.15,12.26,16.48s-4.88,13.26-10.67,17a54.85,54.85,0,0,1-20.76,7.69,75.14,75.14,0,0,1-21.16.56,60.15,60.15,0,0,1-21-6C10.32,42.21,3.87,37.11,2.39,29.9A15.91,15.91,0,0,1,2.23,24.87ZM90,65.26c-1.36,9-9.37,14.89-17.24,18.3A67.53,67.53,0,0,1,46.26,88.7,67.64,67.64,0,0,1,20.32,84c-7.72-3.18-16.5-8.95-18-17.82A24.26,24.26,0,0,1,2.07,62V34.88c3.23,5.74,8.41,9.82,14.26,12.71a62.23,62.23,0,0,0,18.83,5.6,77.78,77.78,0,0,0,19.33.31,66,66,0,0,0,19.21-4.93C79.55,46,85.33,42.25,88.91,36.84a16.35,16.35,0,0,0,1.15-1.94V61.49C90.07,62.75,90.08,64,90,65.26Z"/>
    <path d="M10.71,29.19c2.66,12.14,17.18,16.79,28,18.27C50,49,63.17,47.28,72.82,40.82c4.71-3.15,8.89-8,8.8-14S77.27,16,72.51,12.93c-10-6.55-23-7.79-34.67-6.33a45,45,0,0,0-16.61,5.35c-4.93,2.83-9.69,7.26-10.58,13.15A14.27,14.27,0,0,0,10.71,29.19ZM52.27,45.6A64.53,64.53,0,0,1,38,45.35a53.86,53.86,0,0,1,16.15,0ZM12.54,26.26C13.79,14.7,28.25,10.07,37.94,8.61,48.53,7,60.61,8.29,70,13.72c4.48,2.59,9,6.67,9.57,12.12S76.29,36,72,39a36,36,0,0,1-7.26,3.73A35.19,35.19,0,0,1,61,43.92a4.45,4.45,0,0,1-2,.27c-.7-.12-1.4-.29-2.11-.42a61.9,61.9,0,0,0-17.18-.65c-1.35.13-2.7.32-4,.56s-2.59.75-4,.38a38.77,38.77,0,0,1-7.73-2.87c-4.59-2.35-9.29-5.8-10.91-10.93A11.9,11.9,0,0,1,12.54,26.26Z"/>
  </g>
</svg>
