<svg xmlns="http://www.w3.org/2000/svg" width="91.91" height="64.44" viewBox="0 0 91.91 64.44">
  <title>Blackspike_Torus 4</title>
  <path d="M85.44,18a11.39,11.39,0,0,1-2.25-2.41A27.21,27.21,0,0,0,80.61,12a25.4,25.4,0,0,0-6.36-5.32A21.82,21.82,0,0,0,60,3.7a18.87,18.87,0,0,0-1.89.39,5.9,5.9,0,0,1-1.38.42,4.76,4.76,0,0,1-.91-.56A33.17,33.17,0,0,0,51.43,1.7,21.11,21.11,0,0,0,44,0c-4.81-.14-8.6,2.45-11.53,6.08-.25.3-.93,1.49-1.24,1.59S29.45,7.09,29,7c-1.23-.37-2.46-.72-3.71-1-2.6-.6-5.83-1.09-8.14.61-1.87,1.38-2.36,3.81-2.64,6-.1.79-.16,1.59-.24,2.38A10.34,10.34,0,0,1,14,17.78c-.22.49-.62.38-1.24.42-.83.06-1.65.1-2.48.14-1.33.07-2.66.1-4,.21-1.58.14-3.65.38-4.36,2S2.16,23.83,3,25.09s1.71,2.14,2.57,3.17l1,1.2c.22.27.76.73.86,1.08s.16,0,.06.43c-.05.2-.66.57-.81.7-1.94,1.62-4.43,3-5.92,5.08C-.82,39,.13,41.23,2.7,42a23.91,23.91,0,0,0,3.08.62c1.11.18,2.22.37,3.33.57a6.43,6.43,0,0,1,1.82.37c.62.35.32-.3.43.66a6.36,6.36,0,0,1-.1,1.16c-.24,2.85-1.19,6.85.46,9.42,1.24,1.93,3.69,2.27,5.84,2.06A29.42,29.42,0,0,0,21.86,56l1.44-.34,1.6-.36.52-.12q.63-.41.78.31a15.77,15.77,0,0,1,1.64,2.7,16.29,16.29,0,0,0,2.83,3.5A10.21,10.21,0,0,0,35.2,64.1a16.79,16.79,0,0,0,8.43-.47A26,26,0,0,0,47.77,62c.48-.24,1.76-1.24,2.27-1.25s1.67.83,2.28,1.06C58.08,64,64.5,62.92,69.79,60a27.18,27.18,0,0,0,6.65-5.24,3.81,3.81,0,0,1,1.64-1.25A20.16,20.16,0,0,0,80,52.65a21.1,21.1,0,0,0,3.48-2.19A21.78,21.78,0,0,0,90,24.3,20.16,20.16,0,0,0,85.44,18ZM69.15,6.51A23.06,23.06,0,0,1,80,14.38a18.78,18.78,0,0,0-12.6-1c-1.14.31-2.24,1-3.36,1.22s-3.08-.42-4.35-.56c-1.79-.2-3.59-.24-5.38-.34a10.16,10.16,0,0,0-3.12.47l.27.89-.31-.87c-.37.13-.72.17-.8.46-.82-.41-3.37,1.85-4,2.39-1.7,1.5-3.16,3.26-4.8,4.81-3.1,2.93-6.7,4-10.91,4.07a36.31,36.31,0,0,0,2.3-5.69,20.22,20.22,0,0,1,1.38-4c.82-1.38,3.34-1.28,4.77-1.61a51.83,51.83,0,0,0,5.81-1.5A17.7,17.7,0,0,0,47,12.21a2.7,2.7,0,0,0-.28-.57,2.69,2.69,0,0,0,.3.56c3.32-1.78,6.13-4.28,9.72-5.62A18.34,18.34,0,0,1,69.15,6.51ZM50,25.7a7.75,7.75,0,0,0,4.44,1.09c2.12-.23,3.85-1.53,5.65-2.54.58-.32,1.17-.63,1.78-.9a6.17,6.17,0,0,1,1.51-.57c.47-.06.34-.13.67.17.81.72,2,3.51,1.66,4.5-.14.42-.42.79-.56,1.2a4.5,4.5,0,0,0,0,3.12c.89,2.2,3.32,1.84,5.11,1a3.22,3.22,0,0,1,2.22-.6,2.18,2.18,0,0,1,1.14.9c.69,1,.72,1.5-.3,2a5.47,5.47,0,0,1-4.49-.14c-1.6-.67-3.83-2.25-5.26-.68-.65.71-.5,1.59-.76,2.53a14.93,14.93,0,0,1-1.57,3.5c-.3.51-.63,1-1,1.48s-.48.66-.73,1c-.54.67-.4.59-1.15.37a11.25,11.25,0,0,1-2.77-1.7A19.2,19.2,0,0,0,51.77,39c-2.92-1.14-6.14-.14-8.88,1.07-.8.35-1.58.74-2.37,1.12-.57.27-.66.44-1.15.11-1.26-.83-2.17-2.18-3.47-3a17.63,17.63,0,0,0-4.54-2.09c-.75-.23-1.49-.41-2.25-.57a8.94,8.94,0,0,1-1.3-.23c-.68-.26-.78-.67-1.21-1.32a7.87,7.87,0,0,1-.85-1.22l-.36-.46c0-.21,1.28-1.15,1.47-1.35.48-.49,1-1,1.41-1.55a11,11,0,0,1,.87-1.15c.56-.51.87-.39,1.69-.41a17.63,17.63,0,0,0,9.8-2.74,18.92,18.92,0,0,0,2.1-1.73l.7-.65c.64-.62.59-.73,1.35-.24,1.71,1.1,3.44,2.11,5.2,3.12Zm16.81-3.54a9.65,9.65,0,0,1,6,1.7,8.22,8.22,0,0,0-5.29,1.64,17.63,17.63,0,0,0-1.52-3.27Zm-24.95-20c-.16-.24.11,0,0,0A5.17,5.17,0,0,1,43.6,2a17.23,17.23,0,0,1,3.51.38,24.84,24.84,0,0,1,7.25,3C50.91,7,48.1,9.84,44.5,11.13A52,52,0,0,1,36.83,13c-1.27.24-2.89.49-3.75,1.38-.28.28-1.31,2-.83,2.13-.42-.14-.76,1.6-.87,1.94-.36,1.12-.71,2.18-1.11,3.28a21.39,21.39,0,0,1-5,8.09,33.14,33.14,0,0,0-2.06-10c-.27-.79-.4-.84.26-1.39.38-.32.77-.63,1.17-.92A25.45,25.45,0,0,0,27,15.69c.63-.58,1.23-1.2,1.78-1.82C32.58,9.67,35.66,2.95,41.83,2.15ZM16.37,14c.17-3.09.84-6.39,4.48-6.58,3-.16,6.25,1,9.1,1.95-.85,1.11-1.72,2.2-2.66,3.24a45.8,45.8,0,0,1-5.16,4.31,5.7,5.7,0,0,0-.44-1.43c-.27-.32-.16-.25-.77-.13l-1.24.24a25.73,25.73,0,0,0,1.53,4.76,31.23,31.23,0,0,1,2,9.69,32.39,32.39,0,0,0-4.42-3.55c-1.06-.71-2.12-1.37-3.23-2-.84-.48-.63-.56-.42-1.4.06-.27.12-.55.18-.83C15.91,19.51,16,16.77,16.37,14ZM3.78,21.33c.56-1.18,4.21-.88,5.4-.93,1.5-.06,3-.14,4.52-.27a27,27,0,0,1-.61,3C12,22.55,10.92,22,9.87,21.44c-.63-.36-.48-.45-.91-.06a4.27,4.27,0,0,0-.78,1.4c.15.53,2.67,1.43,3.17,1.7,5.09,2.69,10.21,5.66,13.51,10.59a95.83,95.83,0,0,0-12.25.1,25.38,25.38,0,0,0-3.85-6.25C8,28,7.25,27.09,6.5,26.19S3,22.74,3.78,21.33C3.82,21.24,3.68,21.52,3.78,21.33Zm6.59,13.92Zm.49,6.25C8.35,40.94,5.43,40.94,3,40s.19-3,1.28-3.84c1.53-1.25,3.09-2.42,4.58-3.71a23,23,0,0,1,1.5,2.8c-.45,0-.87,0-1.31,0,0,.38-.31,1.73-.08,2s2.08,0,2.31,0c3.24-.11,6.51-.36,9.77-.33,6,.05,12.4.85,16.66,5.57-2.39,1.09-4.77,2.22-7.24,3.12a13.3,13.3,0,0,1-3.36,1c-1.43.11-3.12-.7-4.46-1.18A121.84,121.84,0,0,0,10.87,41.5Zm10.5,12.57c-2.57.65-5.13,1.25-7.55.22-1.9-2.65-.65-7-.45-10.14a57.74,57.74,0,0,1,6.11,2.18c1.27.5,2.55,1,3.85,1.42a20.77,20.77,0,0,0,2.81.95c1.66.26,3.79-.77,5.3-1.33,2.88-1.07,5.67-2.44,8.48-3.71,1.72-.77,3.4-1.67,5.17-2.32a13.06,13.06,0,0,1,3.2-.78c.13,0,1.34,0,1.39,0s.1-.58.13-.72c0,.72-.11.5.38.79.71.42,1.61.58,2.34,1s1.26.88,1.89,1.32a30.82,30.82,0,0,0,3.1,1.9,21.14,21.14,0,0,1-5.47,4,21.48,21.48,0,0,1-6.48,1.58,65.49,65.49,0,0,1-9.47.56,101.53,101.53,0,0,0-14.74,3.05ZM37,62.35a7.78,7.78,0,0,1-3.51-1,8.84,8.84,0,0,0-1.11-.77c-.13,0-.42.45-.52.56.29-.38.39-.42.29-.75-.15-.5-1.35-1.36-1.71-1.84A39.41,39.41,0,0,1,28,54.56c2-.5,4-.93,6-1.25A49,49,0,0,1,39.71,53a57.15,57.15,0,0,0,6.15-.59,26.76,26.76,0,0,0,5.49-1.05,23.83,23.83,0,0,0,11.6-10.13,2.68,2.68,0,0,0-.52-.32,2.64,2.64,0,0,0,.53.3,18.6,18.6,0,0,0,1.65-3.56c.26-.8.23-.76-.69-1l.91.19c.19-.89,0-1.54,1.1-1.15s2,1,3,1.35c.45.14,2.87.83,2.76.07l0,.3c.41,0,2,0,1.49-.74a2.11,2.11,0,0,0,.15.44,7.12,7.12,0,0,0,.94-.35c-.41,3.28-2.75,5.65-5.16,7.71a20.43,20.43,0,0,1-5.23,3.45,18.48,18.48,0,0,0-4.77,3.43C53.22,56.47,45.45,63.32,37,62.35ZM73.27,55c-5.66,5.09-14,7.79-21.26,4.44,3.67-2.45,6.91-5.39,10.31-8.17a18.18,18.18,0,0,1,3.41-2,26.24,26.24,0,0,0,5.16-3.71c2.83-2.52,5.25-5.44,5.45-9.24a7.94,7.94,0,0,0-.37-3,2.42,2.42,0,0,0-.47.15c.15,0,.3-.14.45-.2l0-.12-.74.26.73-.29c-.11-.28-1.87-3.36-2.25-2.24l.17-.35-.42.63.33-.68c-.48-.24-1.29-.69-1.6-.32-.51-.58-2.3.5-2.76.74-.79.4-2,1-2.45-.09-.69-1.7,1.37-3.65,2.7-4.32,3.13-1.58,6.9-.13,9.08,2.42,2.93,3.44,3.41,8.46,2.52,12.75A25,25,0,0,1,73.27,55Zm6.37-4.46c4.17-6.56,6.05-16.3.72-22.77a11.3,11.3,0,0,0-2.7-2.4c-1.54-1-2.85-2.68-4.6-3.74a11.19,11.19,0,0,0-4.74-1.45c-1.26-.12-4-.24-5,.56-.53-.17-1.93.58-2.46.82a24.23,24.23,0,0,0-2.38,1.25c-1.95,1.14-3.88,2.53-6.24,1.73S47.63,22,45.5,20.67c1.85-2,3.8-3.84,6.44-4.64s5.77-.22,8.4.12q.79.1,1.57.23c.77.13.51.23.93.52.27.18.06.27.32.32s.85-.4,1.08-.51a18.49,18.49,0,0,1,8.76-2c11.52.42,18.94,12.23,16.43,23a20,20,0,0,1-9.79,12.81C82.63,45.86,83.59,48.42,79.64,50.56Z"/>
</svg>
