<svg xmlns="http://www.w3.org/2000/svg" width="91.98" height="68.58" viewBox="0 0 91.98 68.58">
  <title>Blackspike_Torus 1</title>
  <path d="M91.94,29.5C91.16,20,87.1,10.83,79.29,5.07,71.72-.53,62-1.23,53.27,1.69a45.37,45.37,0,0,0-12,6.2,72.81,72.81,0,0,0-5.78,4.68c-.86.76-1.67,1.57-2.5,2.37-.31.3-.62.6-.91.91-.64.66-.57.9-1.38.6-4.7-1.76-9.09-4.5-13.47-6.89-3.7-2-8-5.14-12.35-3.42A7.8,7.8,0,0,0,1,17.12a27.27,27.27,0,0,0,4.48,5.39C6.92,24,8.37,25.56,9.92,27c2.25,2.09,4.49,4.19,6.75,6.27.46.43,1.44,1,1.47,1.49s-.64,1.15-.83,1.51c-.34.64-.66,1.3-1,1.94a54.83,54.83,0,0,0-4.81,13c-1,4.42-1,9.28,1.72,13.12s7.83,4.92,12.18,3.8c4.52-1.17,8.48-3.86,12.19-6.6,2-1.48,3.91-3,5.84-4.6.89-.73,1.81-1.45,2.69-2.2.46-.4.54-.62,1.05-.56A8.44,8.44,0,0,1,49,55c8.29,3.5,18.09,5.53,26.78,2.22,8.85-3.36,14.4-11.46,15.82-20.65A36.85,36.85,0,0,0,91.94,29.5ZM27.28,17.11l2.59,1.12c-1.08,1.25-2.15,2.49-3.18,3.77-4.12-3.7-8.06-7.46-11.9-11.44C18.92,12.85,23.07,15,27.28,17.11ZM10.89,25.21C9.28,23.6,7.61,22,6.07,20.35s-3.61-3.64-4-6.05A5.73,5.73,0,0,1,4.46,8.63c2-1.46,4.51-1.12,6.66-.09a1.7,1.7,0,0,1,.56.3c.19.25-.05.76.14,1.21a3.39,3.39,0,0,0,.5.69c.57.69,1.26,1.32,1.89,2,1.88,1.94,3.75,3.91,5.63,5.84a118.23,118.23,0,0,0,10.39,9.12,147,147,0,0,0,12.93,9.5l-6.94,6.21c-.35.31-.91,1-1.35,1.2s-.07.15-.62-.07a19.73,19.73,0,0,1-3.49-2.43c-4.65-3.38-9.11-7-13.4-10.85C15.17,29.27,13.05,27.22,10.89,25.21Zm18,24.19c-.48.35-1,.7-1.45,1a57.59,57.59,0,0,1,2.79-6.29c.92.68,1.87,1.32,2.81,2Zm9.82,8.87a72.44,72.44,0,0,1-9.15,6.15c-3,1.58-6.63,2.8-10,1.89C11,64,12.54,53.67,14.64,47.37a68.65,68.65,0,0,1,5.13-11.43q3.48,3,7.11,5.74a6.66,6.66,0,0,1,1.4,1c.3.43.25.07,0,.68a8.29,8.29,0,0,1-.41.82c-.7,1.45-1.36,2.91-2,4.4-.24.59-.45,1.19-.66,1.79a7.26,7.26,0,0,1-.62,1.8,6,6,0,0,1-1.89,1c-.69.32-2.2.45-2.52,1.11-.56,1.19.77,1.55,1.64,1.36a10,10,0,0,0,2-.85,27.93,27.93,0,0,0,3.66-2.12c4.91-3.26,9.29-7.27,13.72-11.13,2-1.77,4-3.63,5.9-5.47a62.24,62.24,0,0,0,5.5-5.54c.56-.69,1.16-2.07-.24-2.32-.93-.17-1.58,1.38-2.11,2-1.16,1.33-2.48,2.52-3.74,3.76-.57.56-.5.59-1.26.45-1.07-.2-2.14-.44-3.21-.66-1.42-.3-2.6-1.5-3.77-2.33,1.45-1.8,3-3.54,4.56-5.2.81-.84,1.66-1.66,2.52-2.45s1.18-.36,2.14-.2l7.49,1.3c2.23.39,4.56.84,6.26,2.46,3.42,3.29,2,7.83-.76,11a137.82,137.82,0,0,1-10.4,10C46.43,51.77,42.62,55,38.69,58.27Zm38.25-24.5c-.45,3-1.35,6.15-3.84,8.13a11.45,11.45,0,0,1-8.39,2,28.82,28.82,0,0,1-5.51-1.14c3.16-3.15,6.75-6.74,6.2-11.6-.58-5.1-5-7.28-9.55-8.08L48,21.65c4.54-3.49,9.76-6.85,15.7-6.87s10.15,4.48,12.06,9.72A22.42,22.42,0,0,1,76.93,33.77ZM90,32.4c-.34,7.35-2.86,14.52-8.63,19.36S67.77,57.58,60.51,56.4a48.45,48.45,0,0,1-12-3.8c2.64-2.38,5.36-4.7,7.94-7.14.64-.61.8-1.1,1.64-1s1.62.48,2.43.68a27,27,0,0,0,4.6.77,13.42,13.42,0,0,0,8.78-2.15,12.74,12.74,0,0,0,4.65-7.62A21.77,21.77,0,0,0,74.1,17.71C69.4,12.29,62.4,11.82,56,14.4c-6.17,2.51-11.41,7.08-15.88,11.92-.55.59-1.07,1.19-1.59,1.8-.25.3-1.31,2-1.73,2.09S35.05,29,34.68,28.67s-.82-.63-1.22-1l-2.53-2.09a13.06,13.06,0,0,1-2.42-2c-.05-.08-.3-.17-.32-.27s.76-1,.9-1.12c.56-.68,1.15-1.34,1.73-2a62.57,62.57,0,0,1,15-12.88C51.43,4,58,1.67,64.62,2A25,25,0,0,1,82,10.19a31.63,31.63,0,0,1,7.77,17.6A38.78,38.78,0,0,1,90,32.4Z"/>
</svg>
