<svg xmlns="http://www.w3.org/2000/svg" width="79.94" height="92" viewBox="0 0 79.94 92">
  <title>Blackspike_Menger sponge</title>
  <g>
    <path d="M79.44,22.63,40.47.13a1,1,0,0,0-1,0L.5,22.63a1,1,0,0,0-.5.87v45a1,1,0,0,0,.5.87l39,22.5a1,1,0,0,0,1,0l39-22.5a1,1,0,0,0,.5-.87v-45A1,1,0,0,0,79.44,22.63ZM39,89.27,2,67.92V25.23L39,46.58Zm1-44.42L3,23.5,40,2.15l37,21.34Zm38,23.08L41,89.27V46.58l37-21.34Z"/>
    <path d="M13.49,61.87l13,7.5A1,1,0,0,0,28,68.5v-15a1,1,0,0,0-.5-.87l-13-7.5A1,1,0,0,0,13,46V61A1,1,0,0,0,13.49,61.87ZM26,66.77,16,61l10-5.77Zm-11-19L25,53.5,15,59.27Z"/>
    <path d="M53.46,22.63l-13-7.5a1,1,0,0,0-1,0l-13,7.5a1,1,0,0,0,0,1.73l13,7.5a1,1,0,0,0,1,0l13-7.5a1,1,0,0,0,0-1.73ZM39,29.27,29,23.5l10-5.77Zm2,0V17.73L51,23.5Z"/>
    <path d="M52.46,69.37a1,1,0,0,0,1,0l13-7.5h0A1,1,0,0,0,67,61V46a1,1,0,0,0-1.5-.87l-13,7.5a1,1,0,0,0-.5.87v15A1,1,0,0,0,52.46,69.37ZM65,47.73V59.27L55,53.5Zm-11,7.5L64,61,54,66.77Z"/>
  </g>
</svg>
