<svg xmlns="http://www.w3.org/2000/svg" width="92.13" height="73.08" viewBox="0 0 92.13 73.08">
  <title>Blackspike_Cylinder 1</title>
  <g>
    <path d="M92.08,29.49c0-.42,0-.84,0-1.26a1.3,1.3,0,0,0,0-.65l0,0A19.26,19.26,0,0,0,90,18.86C85.78,11,77.21,6.32,69.08,3.6a73.2,73.2,0,0,0-26-3.54A67.18,67.18,0,0,0,17.35,5.88C9.72,9.44,1.62,15.63.27,24.52a19.62,19.62,0,0,0-.19,2.67h0v0c0,.66,0,1.32,0,2q0,4.73,0,9.46c0,4.15-.47,8.61.86,12.62,2.75,8.34,11,13.75,18.73,16.92a72,72,0,0,0,26.16,4.87c2.15,0,4.3-.07,6.44-.24,8.79-.69,17.8-2.81,25.53-7.17,7.18-4,14.09-10.57,14.28-19.37C92.2,40.7,92.08,35.09,92.08,29.49ZM20.48,6.7A70.49,70.49,0,0,1,45.28,2c2.08,0,4.16,0,6.24.19A62.15,62.15,0,0,1,75.78,8.59c6.71,3.5,13.95,9.53,14.29,17.72,0,.35,0,.71,0,1.06h0a18.76,18.76,0,0,1-.29,2.44c-1.45,7.2-7.85,12.37-14,15.58a61.09,61.09,0,0,1-21.53,6.14,75,75,0,0,1-21.28-.72c-7.18-1.29-14.36-3.64-20.45-7.74a26.69,26.69,0,0,1-7.88-7.78,17,17,0,0,1-2.09-4.76A14.62,14.62,0,0,1,2.12,28c0-.54,0-.68-.11-.75a18.64,18.64,0,0,1,.67-4.27C5.06,14.89,13.1,9.68,20.48,6.7ZM88.53,52.62c-3.65,7.64-12.06,12.2-19.73,14.84a70.81,70.81,0,0,1-25,3.58A66,66,0,0,1,19,65.76C11.78,62.55,3.78,56.92,2.3,48.56a24.94,24.94,0,0,1-.22-4.37q0-4.5,0-9c0-.13,0-.27,0-.4a20.81,20.81,0,0,0,2.38,3.72c4.68,5.87,11.77,9.58,18.77,11.91A75.14,75.14,0,0,0,45.83,54a83.06,83.06,0,0,0,13-1.05c7.79-1.32,15.6-3.85,22.17-8.33a28.56,28.56,0,0,0,8.25-8.23c.33-.52.62-1.06.9-1.61,0,2.39-.07,4.79-.07,7.17C90.08,45.67,90.19,49.13,88.53,52.62Z"/>
    <path d="M46,41c1,0,1.92,0,2.88-.11,7.14-.56,16.77-3,20-10.23,3.78-8.42-5.71-14.42-12.54-16.37a37.32,37.32,0,0,0-23.18.93C29.58,16.6,26.07,18.75,24,22a9.33,9.33,0,0,0,.73,11C29.59,39.21,38.55,40.8,46,41ZM34.59,37.14c-.5-.18-1-.38-1.51-.6A28.39,28.39,0,0,1,37.76,35a37.06,37.06,0,0,1,12.92-.66,32.83,32.83,0,0,1,6,1.29c.81.26,1.6.57,2.39.9a25.25,25.25,0,0,1-3.44,1.23A35.47,35.47,0,0,1,34.59,37.14ZM26.43,22.07c4.46-5.51,12.6-6.87,19.25-7.13.8,0,1.6,0,2.4.06,6.45.37,15.55,2.37,18.77,8.74,2.57,5.1-1.1,9.13-5.51,11.64a34,34,0,0,0-6.21-2.26,36.6,36.6,0,0,0-24.38,2.29,14.23,14.23,0,0,1-4.74-4A7.41,7.41,0,0,1,26.43,22.07Z"/>
  </g>
</svg>
