<svg xmlns="http://www.w3.org/2000/svg" width="1024" height="622" viewBox="0 0 1024 622">
  <defs>
    <style>
      .a {
        fill: #3d3d3d;
      }
    </style>
  </defs>
  <title>BS-3D-Icons-Preview</title>
  <g>
    <path class="a" d="M104.39,368.86q-2.21,0-4.45-.1c-12-.53-22.86-3.07-32.13-7.58-6-2.92-20.05-11.21-20.55-25.06-.24-6.63,3.13-11.78,6.39-16.75L103,243.92a1.37,1.37,0,0,1,1.14-.62h0a1.36,1.36,0,0,1,1.14.62l49.23,75.21,1,1.51a39.73,39.73,0,0,1,3.88,6.69,20.78,20.78,0,0,1-.42,17.1c-5.13,10.87-17.14,16.85-26.32,20A88.14,88.14,0,0,1,104.39,368.86Zm-.2-121.71L56,320.77c-3.23,4.93-6.22,9.49-6,15.26.44,12.37,13.44,20,19,22.71,8.93,4.34,19.38,6.8,31.05,7.31a87.2,87.2,0,0,0,31.79-4.24c8.67-2.93,20-8.53,24.72-18.53a18.08,18.08,0,0,0,.37-14.88,37.64,37.64,0,0,0-3.63-6.22l-1-1.54Z"/>
    <g>
      <path class="a" d="M969,281.39c-16.67-15.71-43-19.31-64.85-16.27-19.41,2.7-43.66,12.87-48.39,34.15-2.29,10.31,1.14,21,8.14,28.74s16.32,12.64,26.06,15.74c22.15,7,48.86,5.66,69.27-5.95,8.63-4.91,16.43-12.58,19.67-22.13s1.15-19.92-4.57-28.11a39.69,39.69,0,0,0-5.34-6.16Zm8.39,29.25c-3.62,20.55-26.86,30.54-45.15,33.39-21,3.27-46.35.11-62.85-14.46-7.53-6.65-12.44-16.08-11.49-26.31.88-9.44,6.71-17.33,14.08-22.93,16.66-12.67,40.28-15.51,60.44-12.31,19,3,43.17,13.74,45.24,35.71a25.86,25.86,0,0,1-.26,6.9C975.34,322.21,979,301.19,977.37,310.65Z"/>
      <path class="a" d="M956.75,305.55c-.07-2.33-1.76-4.62-3.38-6.27a25.21,25.21,0,0,0-4.4-3.48c-1.11-.7-4.66-3.24-5.71-2.82l.08-.19c-15.68-6.78-35.57-6.77-51.23,0l.1.23-.11-.23c-5.25,2.4-12.16,6.19-13.33,12.24-.84,4.36,3.75,8.61,7.31,10.91,8.07,5.22,17.9,7.51,27.47,8.09,10,.6,20.57-.8,29.8-4.82a31.31,31.31,0,0,0,10.35-6.84C955.16,310.82,957.5,307.59,956.75,305.55Zm-53.31,14.37a46.87,46.87,0,0,1-15.91-6.28,15.79,15.79,0,0,1-5.5-5.48c-1-2-.47-3.81.83-5.56,3.05-4.09,8.26-6.61,12.93-8.34A60.69,60.69,0,0,1,912,290.82c10.82-.86,22.69.52,32.44,5.53,3.38,1.74,10.2,5.52,9.59,10.16-.33,2.54-2.82,4.72-4.73,6.2a32.55,32.55,0,0,1-7.42,4.2c-12,4.95-25.75,5.72-38.4,3Z"/>
    </g>
    <path class="a" d="M776.18,309.07a18.23,18.23,0,0,0-7.36-8.93c-5.16-3.53-11.84-4.78-18.14-5A78.73,78.73,0,0,0,754.16,277c.32-5.62-.23-11.57-2.9-16.62a17.22,17.22,0,0,0-14.53-9.69c-5.68-.75-11.71,1.81-16.47,4.72a84.91,84.91,0,0,0-13.37,10.51,50.07,50.07,0,0,0-5-1.86,34.9,34.9,0,0,0-34.6,7.8c-9.09,8.44-13.74,21-15.31,33-1.61,12.3,0,25.47,5.62,36.63a39.09,39.09,0,0,0,11.35,13.9c4.67,3.47,11.26,6.25,17.16,6.25a43.8,43.8,0,0,0,8.33-.66,44.7,44.7,0,0,0,13.4-5.21,60.38,60.38,0,0,0,6.17-4.14,26.77,26.77,0,0,0,2.54-2c6.07,4.57,13,8.37,20.66,8.37a17,17,0,0,0,10.91-4.33c5.25-4.71,6.44-12.44,6-19.12-.1-1.41-.28-2.81-.5-4.2h.6c8.45-.49,17.47-2.51,21.51-10.84A13.8,13.8,0,0,0,776.18,309.07Zm-66.3-42.24c1.27-1.17,2.55-2.3,3.89-3.4a71.32,71.32,0,0,1,7.54-5.5c5.24-3.29,10.86-5.12,17-4.3,5.64.75,9.81,5.45,11.59,10.59,1.88,5.4,1.83,11.21,1.08,16.83a74.74,74.74,0,0,1-1.66,8.64c-.39,1.55-.79,3.09-1.27,4.62-.08.24-.19.52-.29.8h-.44A94,94,0,0,0,730.58,297c.55-1.4,1.08-2.8,1.55-4.23,2.47-7.54,5.1-16.31,2.9-24.2l-.07,0a.32.32,0,0,0-.11-.37,5.38,5.38,0,0,0-.44-1c-.51.21-2,.52-2.3,1s0,.87.3,1.38a.23.23,0,0,0,0,.06,20.37,20.37,0,0,0-2.21,1.25c-.86.49-2.62,1.23-3.21,2a2.3,2.3,0,0,1-.21.24l-.06-.07c-1.27,1-2.5,1.95-3.7,3l-.17.14a62.24,62.24,0,0,0-13.23-9Zm17.06,9.49c.48-.38.94-.58,1.11-.91h0a36.62,36.62,0,0,1,4.9-3,23.33,23.33,0,0,1,.06,3.89,49,49,0,0,1-1.5,8.86,85.24,85.24,0,0,0-6.66-7.1C725.55,277.48,726.24,276.89,726.94,276.33ZM711.66,350c-10.79,8.06-25.75,12.47-38.1,5.11s-17.55-21.37-19.09-35c-1.49-13.27,1.37-28.13,8.89-39.3a36.68,36.68,0,0,1,15.39-13.31c6.12-2.72,12.81-2.85,19.28-1.57,13.34,2.65,24.22,12.26,32.61,22.52l0,.07c-.68,2.23-1.39,4.43-2.21,6.61a20.72,20.72,0,0,0-1.18,2.65c-2.55.58-5.08,1.24-7.6,1.95a67.66,67.66,0,0,0-7.06-7.9c-7.91-7.71-22.56-16.68-32.42-6.93a10.69,10.69,0,0,0-2.24,1.65,11.87,11.87,0,0,0-3.28,5.74,43.12,43.12,0,0,0-3.82,11.07c-2.54,12.71-1.12,31.75,11.54,38.87a4,4,0,0,0,1.61.64,15.66,15.66,0,0,0,4.08.48,21.14,21.14,0,0,0,7-1.53c-.07-.19-.13-.44-.2-.69.13.22.26.44.35.62a53.33,53.33,0,0,0,7.5-4.55c2.94,3,6,5.94,9.2,8.68.81.69,1.64,1.39,2.49,2.07C713.45,348.6,712.57,349.3,711.66,350Zm-21.1-65.79a23.66,23.66,0,0,0-2.55-.5l.32-.08a13.4,13.4,0,0,1,2.88-.25Zm3.92-.43a29.72,29.72,0,0,1,10.45,5.17c1.15.83,2.24,1.72,3.29,2.64l-.67.83c-1.57-.79-3.14-1.59-4.67-2.41a87.29,87.29,0,0,0-9.41-4.85A6.81,6.81,0,0,0,694.48,283.75Zm15.87,9.77.61.61-.79-.41ZM679,308c3.5,5.85,8.06,11.24,12.27,16.35q1,1.23,2,2.44a22.24,22.24,0,0,1-3.58.79,15.24,15.24,0,0,1-4.84-.47A10.53,10.53,0,0,1,677.9,321a15.06,15.06,0,0,1-.36-9A21.08,21.08,0,0,1,679,308Zm-4.12,3.6c-1.06,4.88-.7,9.46,2.35,13.52,2.8,3.73,7.39,5.22,11.93,5.22a30.31,30.31,0,0,0,5.84-.86l.54-.1q2.54,2.92,5.19,5.75c-.91.58-1.8,1.31-2.69,1.88-1.07.69-2.38,1.15-3.39,1.89-.69.5-.57.12-.47.63-.27-.38-.08-.3-.87,0a23.94,23.94,0,0,1-3.31.9,13.09,13.09,0,0,1-6.38-.61h0c-.4-.55-1.92-1.16-2.47-1.63a18.39,18.39,0,0,1-3.75-4.54c-3.79-6.25-5-14.16-4.78-21.37a49.24,49.24,0,0,1,1.55-11c.19-.74.43-1.46.67-2.18.06.21.1.42.17.63a42.87,42.87,0,0,0,2.37,5.42A31.11,31.11,0,0,0,674.85,311.59Zm70,41.12c-10.5,7.37-23.85-2.55-31.77-9.41a169.48,169.48,0,0,1-24.26-26.38c-3.68-4.91-7.91-10-10.27-15.7-1-2.43-1.85-5-1.46-7.57a.63.63,0,0,0,0-.19,8.39,8.39,0,0,1,.26-1.09,9,9,0,0,1,4.49-5.29L682,287a8.56,8.56,0,0,1,2.11-.71c5.86-1.13,11.78,3,16.67,5.68,5.28,2.84,10.59,5.63,15.89,8.41l.09.11c-4.69,1.39-9.35,2.93-14,4.47-1.08-1.42-2.14-2.86-3.15-4.33-1.24-1.83-2.5-3.64-3.58-5.58a17.57,17.57,0,0,0-1.42-2.88c-.47-.53-.3-.42-1.12-.07l-1.59.67c.21.49.43,1,.66,1.44h0a67.53,67.53,0,0,0,6.75,10.7A178.49,178.49,0,0,0,715,323.48c5.75,5.92,11.81,11.59,19.15,15.49v0h0a13.33,13.33,0,0,0,3.29.8l.05-.33a1,1,0,0,0,.16-1l.22-1.37a6.65,6.65,0,0,1-.69-.19l0-.13a.82.82,0,0,0-.26,0c-.39-.12-.8-.25-1.14-.32a42.71,42.71,0,0,0-1.23-7.43c1-1.55,2.07-3.12,3.06-4.72,1.18-1.92,2.28-3.88,3.36-5.85a16.13,16.13,0,0,0,1.17-2l.36,0c1.47-.1,2.93-.17,4.39-.17.37,1,.75,1.93,1.08,2.91C751.34,329.24,755.29,345.36,744.81,352.72ZM732.9,335.17q-.77-.46-1.52-1l-.33-.24c.46-.63.91-1.27,1.36-1.91C732.61,333.1,732.78,334.13,732.9,335.17Zm.82-9.79c-1.09,1.71-2.22,3.41-3.41,5.05-.27.38-1.05,1.15-1.6,1.86q-1.55-1.18-3-2.43c-2.81-2.35-5.5-4.88-8.1-7.52,4.21-1.33,8.43-2.62,12.73-3.66,2.46-.6,4.91-1.16,7.41-1.58l.87-.13C737.07,319.83,735.47,322.65,733.72,325.38Zm36.73-3.22a18.89,18.89,0,0,1-9.71,4.81,46.94,46.94,0,0,1-5.91.62c-.33,0-1.09-.07-1.74-.1a82.44,82.44,0,0,0-3.31-11.17,36.18,36.18,0,0,1,6.2.87h0a8,8,0,0,0,1.59.87c.19.22.45.46.57.59l.24-.2c.16.08.32.16.46.25l.88-1.36.52-.43-.13-.17.21-.33a20.56,20.56,0,0,0-2.28-1.26l.09-.23c-4.79-1.89-10.55-1.6-15.63-1.23v0l-.42.07-.22,0v0a171.56,171.56,0,0,0-26.37,6.38c-2.65-2.82-5.18-5.73-7.6-8.7q-1.66-2-3.31-4.11c.37-.16.7-.32.88-.38,2.55-.86,5.09-1.74,7.65-2.57,4.15-1.34,8.36-2.44,12.59-3.53a92.68,92.68,0,0,1,22-3c7.49-.08,15.28,1.22,21.39,5.79A12.13,12.13,0,0,1,770.45,322.16Z"/>
    <path class="a" d="M561.8,286.66a15.54,15.54,0,0,1-3.07-3.29,37.13,37.13,0,0,0-3.53-4.9,34.67,34.67,0,0,0-8.68-7.27A29.78,29.78,0,0,0,527,267.15a25.75,25.75,0,0,0-2.58.53,8.06,8.06,0,0,1-1.88.57,6.5,6.5,0,0,1-1.24-.77,45.27,45.27,0,0,0-6-3.06,28.82,28.82,0,0,0-10.13-2.31c-6.56-.2-11.74,3.34-15.74,8.3-.34.42-1.26,2-1.69,2.16-.6.19-2.44-.79-3.06-1-1.68-.51-3.35-1-5.06-1.38-3.55-.82-8-1.49-11.1.83-2.55,1.88-3.23,5.2-3.61,8.15-.14,1.08-.22,2.16-.33,3.24s.1,2.92-.37,3.93c-.31.66-.85.51-1.7.57-1.13.08-2.26.13-3.39.19-1.82.09-3.63.14-5.45.29-2.16.19-5,.52-6,2.79-.91,2.12.33,4.41,1.54,6.13,1.07,1.52,2.33,2.92,3.51,4.32.46.54.91,1.09,1.36,1.63.3.37,1,1,1.17,1.47s.22.06.08.59c-.07.27-.9.77-1.11.95-2.65,2.22-6,4.14-8.08,6.94-2.22,3.05-.92,6.12,2.59,7.18a32.63,32.63,0,0,0,4.2.84c1.51.25,3,.5,4.54.78a8.77,8.77,0,0,1,2.48.51c.84.48.44-.41.58.9a8.68,8.68,0,0,1-.13,1.58c-.33,3.89-1.62,9.35.63,12.85,1.69,2.63,5,3.09,8,2.81a40.15,40.15,0,0,0,5.86-1.16l2-.47,2.18-.5.71-.17q.86-.56,1.06.42c.92.91,1.53,2.58,2.24,3.69a22.23,22.23,0,0,0,3.87,4.77,13.94,13.94,0,0,0,6.19,3.29,22.91,22.91,0,0,0,11.5-.64,35.55,35.55,0,0,0,5.65-2.3c.66-.33,2.41-1.69,3.1-1.71s2.28,1.13,3.12,1.45c7.86,3,16.62,1.57,23.84-2.45a37.1,37.1,0,0,0,9.08-7.15,5.2,5.2,0,0,1,2.24-1.71,27.51,27.51,0,0,0,2.56-1.12,28.8,28.8,0,0,0,4.75-3A29.73,29.73,0,0,0,568,295.27a27.51,27.51,0,0,0-6.18-8.61ZM539.56,271a31.47,31.47,0,0,1,14.78,10.75,25.64,25.64,0,0,0-17.2-1.33c-1.56.42-3.05,1.33-4.59,1.66s-4.2-.58-5.94-.76c-2.45-.27-4.89-.33-7.35-.47a13.86,13.86,0,0,0-4.26.64l.37,1.21-.42-1.19c-.5.18-1,.24-1.09.62-1.12-.56-4.6,2.52-5.44,3.27-2.32,2-4.31,4.45-6.55,6.57-4.24,4-9.14,5.4-14.89,5.55a49.56,49.56,0,0,0,3.14-7.76c.56-1.73.94-3.91,1.89-5.51,1.12-1.89,4.55-1.74,6.5-2.2a70.73,70.73,0,0,0,7.93-2,24.15,24.15,0,0,0,3-1.22A3.69,3.69,0,0,0,509,278a3.68,3.68,0,0,0,.41.76c4.53-2.43,8.37-5.85,13.27-7.67A25,25,0,0,1,539.56,271Zm-26.17,26.19a10.58,10.58,0,0,0,6.07,1.49c2.9-.32,5.25-2.09,7.72-3.47.79-.44,1.6-.86,2.43-1.23a8.42,8.42,0,0,1,2.06-.78c.64-.08.46-.18.92.23,1.1,1,2.7,4.79,2.26,6.14-.19.57-.58,1.08-.76,1.64a6.15,6.15,0,0,0,0,4.26c1.22,3,4.52,2.51,7,1.32.93-.45,1.94-1.12,3-.81a3,3,0,0,1,1.56,1.22c.94,1.32,1,2.05-.42,2.72a7.46,7.46,0,0,1-6.13-.19c-2.18-.91-5.22-3.06-7.17-.93-.88,1-.68,2.17-1,3.46a20.38,20.38,0,0,1-2.15,4.78c-.41.69-.86,1.36-1.33,2-.32.45-.65.89-1,1.33-.73.92-.54.81-1.57.51a15.35,15.35,0,0,1-3.77-2.32,26.2,26.2,0,0,0-5.22-3.2c-4-1.55-8.38-.19-12.12,1.46-1.09.48-2.16,1-3.23,1.52-.78.37-.9.6-1.58.15-1.72-1.13-3-3-4.74-4.13a24.07,24.07,0,0,0-6.2-2.85c-1-.31-2-.56-3.07-.78a12.2,12.2,0,0,1-1.77-.32c-.93-.36-1.07-.91-1.65-1.8a10.74,10.74,0,0,1-1.16-1.66l-.49-.63c0-.29,1.75-1.57,2-1.84.66-.67,1.35-1.42,1.92-2.12a15,15,0,0,1,1.18-1.56c.76-.69,1.18-.54,2.31-.57,4.73-.11,9.42-1,13.37-3.73a25.82,25.82,0,0,0,2.86-2.36l1-.89c.87-.84.8-1,1.84-.33,2.33,1.5,4.7,2.88,7.09,4.26Zm22.95-4.83a13.17,13.17,0,0,1,8.15,2.32,11.22,11.22,0,0,0-7.22,2.24,24.06,24.06,0,0,0-2.08-4.46Q535.76,292.38,536.33,292.35Zm-34-27.3c-.22-.33.15-.06,0,0a7.06,7.06,0,0,1,2.39-.19,23.51,23.51,0,0,1,4.79.52,33.9,33.9,0,0,1,9.9,4.11c-4.71,2.2-8.55,6.05-13.46,7.81a70.93,70.93,0,0,1-10.46,2.57c-1.73.33-3.94.68-5.11,1.88-.38.39-1.79,2.7-1.13,2.91-.57-.19-1,2.18-1.19,2.65-.49,1.52-1,3-1.51,4.47a29.19,29.19,0,0,1-6.87,11,45.23,45.23,0,0,0-2.81-13.64c-.37-1.08-.55-1.15.36-1.9.52-.43,1.05-.85,1.6-1.25a34.74,34.74,0,0,0,3.32-2.5c.86-.8,1.68-1.63,2.43-2.48C489.66,275.31,493.85,266.13,502.29,265ZM467.53,281.2c.24-4.22,1.14-8.72,6.12-9,4.15-.21,8.53,1.37,12.42,2.66-1.15,1.52-2.34,3-3.63,4.42-2.13,2.34-4.62,3.89-7,5.89a7.78,7.78,0,0,0-.6-2c-.37-.44-.21-.34-1.05-.18l-1.7.33c.26,2.13,1.39,4.46,2.09,6.5a42.61,42.61,0,0,1,2.77,13.22,44.21,44.21,0,0,0-6-4.85c-1.44-1-2.89-1.87-4.4-2.73-1.14-.65-.86-.77-.58-1.92.09-.37.16-.75.24-1.13C466.91,288.73,467.09,285,467.53,281.2Zm-17.18,10c.76-1.61,5.74-1.2,7.36-1.27,2-.09,4.12-.19,6.16-.37a36.81,36.81,0,0,1-.83,4.08c-1.47-.78-3-1.48-4.39-2.31-.86-.49-.66-.62-1.24-.08a5.83,5.83,0,0,0-1.07,1.91c.21.72,3.64,2,4.33,2.32,6.95,3.67,13.94,7.73,18.43,14.46a130.79,130.79,0,0,0-16.72.14,34.64,34.64,0,0,0-5.25-8.53c-1-1.26-2.06-2.5-3.09-3.73s-4.76-4.72-3.7-6.63C450.41,291.1,450.21,291.48,450.35,291.22Zm9,19Zm.67,8.53c-3.44-.77-7.41-.77-10.72-2s.25-4,1.74-5.24c2.09-1.71,4.22-3.3,6.25-5.07a31.44,31.44,0,0,1,2,3.82c-.61,0-1.19,0-1.78,0,0,.51-.42,2.36-.12,2.73s2.84,0,3.15,0c4.43-.15,8.88-.49,13.33-.45,8.2.07,16.92,1.16,22.73,7.6-3.26,1.49-6.51,3-9.88,4.26a18.15,18.15,0,0,1-4.58,1.36c-2,.15-4.25-1-6.08-1.62A166.28,166.28,0,0,0,460,318.75Zm14.34,17.16c-3.51.89-7,1.71-10.31.29-2.59-3.61-.89-9.59-.62-13.84a78.81,78.81,0,0,1,8.34,3c1.74.68,3.48,1.36,5.26,1.94a28.34,28.34,0,0,0,3.84,1.3c2.27.35,5.17-1.05,7.23-1.82,3.93-1.46,7.73-3.34,11.57-5.06,2.34-1.05,4.64-2.28,7.06-3.17a17.83,17.83,0,0,1,4.37-1.06c.17,0,1.82,0,1.89,0s.14-.79.18-1c-.06,1-.15.68.52,1.08,1,.58,2.19.8,3.19,1.43s1.71,1.21,2.58,1.8a42.06,42.06,0,0,0,4.23,2.59,28.85,28.85,0,0,1-7.46,5.46c-2.73,1.35-5.85,1.71-8.84,2.16a89.38,89.38,0,0,1-12.92.77c-6.78.67-13.54,2.5-20.12,4.17Zm21.33,11.29a10.62,10.62,0,0,1-4.79-1.43,12.06,12.06,0,0,0-1.51-1.05c-.18,0-.57.61-.72.77.39-.52.53-.58.4-1-.21-.68-1.84-1.86-2.33-2.51a53.78,53.78,0,0,1-3.38-5.38c2.71-.68,5.47-1.27,8.23-1.7a66.82,66.82,0,0,1,7.79-.39,78,78,0,0,0,8.39-.8,36.52,36.52,0,0,0,7.49-1.44,32.53,32.53,0,0,0,15.82-13.83,3.66,3.66,0,0,0-.71-.44,3.6,3.6,0,0,0,.72.41,25.38,25.38,0,0,0,2.25-4.86c.35-1.09.31-1-.94-1.35l1.24.26c.26-1.21,0-2.1,1.5-1.57s2.67,1.38,4.12,1.84c.61.19,3.92,1.14,3.77.1l0,.4c.56,0,2.69,0,2-1a2.87,2.87,0,0,0,.2.61,9.72,9.72,0,0,0,1.28-.48c-.56,4.47-3.75,7.71-7,10.52a27.89,27.89,0,0,1-7.13,4.71c-2.52,1.05-4.46,2.9-6.52,4.68C517.82,339.18,507.22,348.53,495.69,347.2Zm49.5-10c-7.73,6.94-19.15,10.63-29,6.06,5-3.34,9.43-7.35,14.08-11.15a24.81,24.81,0,0,1,4.65-2.69,35.81,35.81,0,0,0,7-5.06c3.86-3.43,7.17-7.43,7.44-12.61a10.84,10.84,0,0,0-.5-4.13,3.31,3.31,0,0,0-.64.2c.21-.07.41-.19.62-.27l-.06-.17-1,.35,1-.39c-.15-.38-2.55-4.59-3.08-3.06.08-.16.15-.32.23-.48l-.57.86.46-.92c-.66-.32-1.76-.94-2.18-.43-.7-.79-3.13.68-3.77,1-1.07.55-2.75,1.34-3.34-.12-.95-2.32,1.87-5,3.69-5.9,4.27-2.16,9.42-.18,12.39,3.31,4,4.7,4.65,11.55,3.43,17.4A34.18,34.18,0,0,1,545.19,337.2Zm8.69-6.08c5.69-9,8.26-22.25,1-31.07a15.42,15.42,0,0,0-3.68-3.28c-2.1-1.32-3.89-3.66-6.28-5.11a15.27,15.27,0,0,0-6.47-2c-1.72-.16-5.4-.33-6.81.77-.73-.23-2.63.8-3.36,1.12a33.07,33.07,0,0,0-3.25,1.71c-2.66,1.55-5.3,3.46-8.52,2.36s-6.32-3.45-9.21-5.32c2.52-2.67,5.19-5.24,8.79-6.33s7.87-.3,11.46.17q1.07.14,2.14.32c1,.18.69.31,1.27.71.36.25.08.37.43.44s1.15-.54,1.48-.7a25.23,25.23,0,0,1,12-2.68c15.72.57,25.84,16.7,22.42,31.38a27.31,27.31,0,0,1-13.36,17.48C558,324.69,559.28,328.19,553.88,331.12Z"/>
    <g>
      <path class="a" d="M366.51,296.47c0-.58,0-1.15,0-1.72a1.78,1.78,0,0,0,0-.89s0,0,0,0A26.29,26.29,0,0,0,363.61,282c-5.71-10.66-17.4-17.11-28.49-20.82a99.91,99.91,0,0,0-35.51-4.84c-12,.47-24.17,2.84-35.09,7.94-10.42,4.86-21.47,13.31-23.31,25.44a26.78,26.78,0,0,0-.26,3.64h0v0c0,.9,0,1.8,0,2.7q0,6.45,0,12.91c0,5.67-.64,11.75,1.17,17.23,3.75,11.38,15,18.77,25.56,23.1,11.34,4.64,23.52,6.43,35.7,6.64,2.93,0,5.86-.1,8.79-.33,12-.95,24.29-3.84,34.84-9.78,9.8-5.52,19.22-14.43,19.49-26.43C366.68,311.77,366.51,304.11,366.51,296.47Zm-97.72-31.1c10.79-4.36,22.27-6.13,33.85-6.41,2.84,0,5.68.06,8.52.26,11.39.81,22.94,3.42,33.11,8.73,9.16,4.78,19,13,19.5,24.18,0,.48,0,1,0,1.45h0a25.61,25.61,0,0,1-.39,3.32c-2,9.82-10.71,16.89-19.16,21.26a83.37,83.37,0,0,1-29.38,8.39,102.42,102.42,0,0,1-29-1c-9.79-1.77-19.6-5-27.91-10.56a36.42,36.42,0,0,1-10.75-10.62,23.24,23.24,0,0,1-2.85-6.5,20,20,0,0,1-.56-3.52c-.05-.74,0-.93-.16-1a25.44,25.44,0,0,1,.91-5.82C247.75,276.54,258.73,269.43,268.79,265.37ZM361.67,328c-5,10.42-16.46,16.65-26.92,20.25a96.64,96.64,0,0,1-34.15,4.89A90.13,90.13,0,0,1,266.8,346C256.92,341.58,246,333.9,244,322.5a34,34,0,0,1-.3-6q0-6.15,0-12.29c0-.18,0-.36,0-.54a28.4,28.4,0,0,0,3.24,5.08c6.38,8,16.07,13.07,25.62,16.26a102.55,102.55,0,0,0,30.85,4.84,113.36,113.36,0,0,0,17.74-1.44c10.64-1.8,21.29-5.25,30.26-11.37a39,39,0,0,0,11.26-11.23c.44-.71.84-1.45,1.22-2.2,0,3.27-.09,6.53-.09,9.78C363.78,318.55,363.94,323.27,361.67,328Z"/>
      <path class="a" d="M303.57,312.21c1.31,0,2.62,0,3.92-.15,9.75-.77,22.89-4.09,27.32-14,5.16-11.5-7.8-19.68-17.12-22.35A50.94,50.94,0,0,0,286.06,277c-4.85,1.86-9.64,4.8-12.47,9.27a12.73,12.73,0,0,0,1,14.95C281.22,309.72,293.46,311.91,303.57,312.21ZM288,306.91c-.69-.25-1.38-.52-2.06-.81a38.75,38.75,0,0,1,6.39-2.11,50.57,50.57,0,0,1,17.64-.9,44.8,44.8,0,0,1,8.18,1.76c1.1.35,2.19.78,3.26,1.23a34.46,34.46,0,0,1-4.69,1.68A48.4,48.4,0,0,1,288,306.91Zm-11.14-20.57c6.09-7.52,17.19-9.38,26.27-9.72,1.09,0,2.19,0,3.28.08,8.81.5,21.23,3.23,25.61,11.93,3.5,7-1.5,12.46-7.52,15.89a46.41,46.41,0,0,0-8.47-3.08,50,50,0,0,0-33.27,3.12,19.41,19.41,0,0,1-6.48-5.53A10.12,10.12,0,0,1,276.91,286.34Z"/>
    </g>
  </g>
  <g>
    <g>
      <path class="a" d="M777,88c.08-14-11.3-23.89-23.08-29.49-12.24-5.82-26-8.19-39.51-8.23s-27.2,2.32-39.41,8c-11.64,5.44-23.35,15.16-23.54,29-.22,15.87,0,31.76,0,47.64,0,5.32.89,10.17,3.71,14.8,3.49,5.74,8.92,10.22,14.68,13.55,11.73,6.79,25.47,10,38.93,10.6,13.75.65,27.78-1.1,40.63-6.15,11.84-4.65,25-13.4,27.29-26.91a38.2,38.2,0,0,0,.31-6.4V94.58Q777,91.28,777,88ZM654.41,84.2c1.88-9.8,9.48-16.8,17.9-21.47,8.84-4.9,18.77-7.59,28.75-8.91a102.43,102.43,0,0,1,28.88.35c9.59,1.48,19.21,4.35,27.59,9.33C765.59,68.31,773.79,76,774.27,86s-6.67,18.1-14.56,23.24c-8.54,5.56-18.33,8.78-28.33,10.5a102.55,102.55,0,0,1-28.87.77c-9.85-1.12-19.78-3.64-28.6-8.24-8.45-4.41-17.25-11.36-19.27-21.21A21.71,21.71,0,0,1,654.41,84.2Zm119.78,55.12c-1.86,12.31-12.79,20.32-23.53,25-11.35,4.92-23.84,7-36.16,7a92.31,92.31,0,0,1-35.4-6.48c-10.53-4.34-22.52-12.21-24.62-24.32a33.1,33.1,0,0,1-.28-5.7V97.87c4.41,7.83,11.48,13.4,19.46,17.34a84.93,84.93,0,0,0,25.7,7.65,106.15,106.15,0,0,0,26.38.43,90,90,0,0,0,26.21-6.72c8-3.49,15.88-8.64,20.77-16a22.31,22.31,0,0,0,1.57-2.65v36.29C774.29,135.9,774.31,137.6,774.19,139.32Z"/>
      <path class="a" d="M666,90.1c3.64,16.57,23.45,22.92,38.17,24.94,15.47,2.13,33.43-.25,46.61-9.07,6.43-4.3,12.13-11,12-19.12s-5.94-14.71-12.44-18.95C736.62,59,718.89,57.27,703,59.27a61.37,61.37,0,0,0-22.67,7.3c-6.73,3.86-13.23,9.91-14.44,17.95A19.47,19.47,0,0,0,666,90.1Zm56.73,22.4a88.07,88.07,0,0,1-19.47-.35,73.51,73.51,0,0,1,22,0ZM668.47,86.11C670.19,70.33,689.92,64,703.15,62c14.45-2.17,30.93-.44,43.75,7C753,72.53,759.16,78.1,760,85.53s-4.47,13.84-10.32,17.9a49.19,49.19,0,0,1-9.91,5.09,48,48,0,0,1-5.09,1.69,6.07,6.07,0,0,1-2.78.37c-1-.16-1.92-.39-2.87-.57a84.48,84.48,0,0,0-23.44-.89c-1.84.17-3.69.44-5.51.76s-3.53,1-5.44.52A52.91,52.91,0,0,1,684,106.48c-6.27-3.21-12.67-7.92-14.89-14.92A16.24,16.24,0,0,1,668.47,86.11Z"/>
    </g>
    <g>
      <path class="a" d="M167,92.73c.08-13.28-10.21-22.9-21.3-28.59-11.49-5.89-24.62-8.62-37.47-9.05S82,56.34,69.83,61c-11.48,4.38-24.08,12.32-27.55,24.9-1.45,5.27-.83,11.19-.83,16.59v27.38c0,5.3.76,10.14,3.52,14.79,3.29,5.53,8.29,9.83,13.7,13.19,10.92,6.76,23.94,10,36.64,11.07a101.46,101.46,0,0,0,39.32-4.21c11.83-3.8,24.74-10.76,30.18-22.56,2.4-5.2,2.19-10.47,2.19-16V99.27Q167,96,167,92.73ZM44.4,89c1.89-9.85,9.55-16.86,18-21.53,8.82-4.86,18.7-7.52,28.64-8.84a102.05,102.05,0,0,1,29,.37c9.64,1.5,19.33,4.41,27.72,9.48,8,4.85,16,12.48,16.46,22.44s-6.93,18.2-14.86,23.36c-8.46,5.51-18.41,8.63-28.3,10.3a102.54,102.54,0,0,1-28.79.7c-9.85-1.15-19.77-3.67-28.58-8.3-8.39-4.41-17.11-11.33-19.12-21.13A21.73,21.73,0,0,1,44.4,89Zm119.78,45.59c-1.78,11.8-11.88,19.56-22.09,24.32-10.54,4.92-22.32,7.16-33.9,7.6a97,97,0,0,1-34.25-4.6c-10.51-3.51-22-9.58-27.28-19.79-2.35-4.51-2.47-9-2.47-14V102.62c4.38,7.79,11.37,13.3,19.28,17.26a85.89,85.89,0,0,0,25.87,7.73,103.33,103.33,0,0,0,26.38.43,90.16,90.16,0,0,0,26.21-6.72c8-3.49,15.86-8.63,20.77-16a22.08,22.08,0,0,0,1.58-2.65v16.5C164.28,124.25,164.53,129.43,164.18,134.54Z"/>
      <path class="a" d="M80.33,94.16c2.83,8.12,12,11.14,19.86,12,7.59.83,16.37-.43,22.68-5,3.2-2.31,5.89-5.91,5.52-10s-3.22-7.25-6.55-9.36c-6.79-4.29-15.75-5.24-23.57-4.07-7.17,1.07-17.4,4.91-18.19,13.35A11.06,11.06,0,0,0,80.33,94.16Zm2.44-2.73c1-7.09,9.74-10.16,15.92-11,6.91-.94,14.32-.35,20.55,3,2.87,1.54,5.95,4.09,6.42,7.51.5,3.63-2.23,6.57-5,8.45-5.77,3.89-13.56,4.7-20.32,4C94.16,102.81,82.32,99.59,82.76,91.44Z"/>
    </g>
    <g>
      <path class="a" d="M303.71,168.08c-2.36,0-3.62-3.88-4.33-5.61-1-2.32-1.84-4.67-2.76-7-1.63-4.15-3.5-8.2-5.43-12.21-3.86-8-8.37-16.09-14.84-22.31-3.06-2.94-7-5.48-11.34-5.66-4.64-.19-8.71,2.39-12,5.38s-5.82,6.83-8.53,10.48c-.71.95-1.91,2.23-3.07,1.08-1-.95,0-3.06.41-4.14.66-2,1.4-3.89,2.15-5.8a187.68,187.68,0,0,1,12-25.63c.54-.93,1.1-1.85,1.66-2.76.67.42,2.19,1,2.18,1.67,0,.86-1.48,2.42-1.94,3.2-1.16,2-2.22,4-3.27,6.11-2.11,4.14-4,8.4-5.79,12.68-.91,2.14-1.74,4.32-2.6,6.48,3.72-4.44,7.86-8.87,13.53-10.7,5.5-1.77,11.15-.19,15.67,3.22,9.39,7.09,15.31,18.72,20,29.23,1.55,3.46,3,6.93,4.45,10.45a61.79,61.79,0,0,0,3.86,8.84c1.62-2.43,2.52-5.42,3.58-8.12,1.18-3,2.44-6,3.72-8.92a127.6,127.6,0,0,1,7.71-15.28c5.52-9.14,14.43-22.22,26.89-19.95,6.65,1.22,11.48,6.28,15.63,11.24-3.27-8.23-6.65-16.51-11.07-24.21-.68-1.18-1.35-2.36-2.06-3.51-.49-.8-.65-.68-.19-1.25a8.13,8.13,0,0,1,1.9-1.17,163.88,163.88,0,0,1,11.82,23.77c1,2.47,2,4.94,2.92,7.42.64,1.69,2.06,4.31,1.9,6.16-.2,2.31-2.44,1.26-3.3.15-.71-.92-1.36-1.9-2-2.85a60,60,0,0,0-4.1-5.3c-3-3.32-6.62-6.41-11-7.54-4.58-1.18-8.86.5-12.53,3.22-7.11,5.25-11.89,13.76-15.82,21.49-2.21,4.34-4.17,8.78-6.09,13.25-1.66,3.85-2.81,8.07-4.84,11.73C306.11,166.44,305.11,168.08,303.71,168.08Z"/>
      <path class="a" d="M259.91,95.33l-2.31-1.46c8.78-13.35,18.38-28.2,33.57-34.94A30.33,30.33,0,0,1,314,58c7.35,2.67,13.76,7.75,19.08,13.38,6.46,6.84,11.66,14.58,16.74,22.46-.38.24-2,1.56-2.31,1.45s-1-1.54-1.25-1.91l-4.46-6.78a92.79,92.79,0,0,0-6.49-8.55c-5.21-6.21-11.1-12-18.37-15.8a27.81,27.81,0,0,0-22.15-1.84c-7.54,2.69-13.61,7.9-19.08,13.58C269.53,80.43,264.77,87.93,259.91,95.33Z"/>
    </g>
    <path class="a" d="M569.84,101.62l-34-13.9V63.35a1.37,1.37,0,0,0-1.9-1.25L499.48,76.92l-40.7-8a1.35,1.35,0,0,0-1.13.29,1.37,1.37,0,0,0-.5,1.05V97a1.36,1.36,0,0,0,.19.69L459.9,102l-14.24,11a1.36,1.36,0,0,0-.53,1.08v26.69a1.37,1.37,0,0,0,.4,1,1.43,1.43,0,0,0,1,.4l42.92-.32L514.11,162a1.36,1.36,0,0,0,.86.31l.27,0a1.36,1.36,0,0,0,.94-.69l12.58-23.36,40.81-7.32a1.36,1.36,0,0,0,1.12-1.34V102.88A1.36,1.36,0,0,0,569.84,101.62Zm-110-5V75.31l10.79,18.37-8.6,6.66Zm13.41-1.5a1.37,1.37,0,0,0,.34-1.77L461.23,72.21l38.14,7.47a1.37,1.37,0,0,0,.8-.09l32.89-14.17V88.64a1.36,1.36,0,0,0,.85,1.26l30.54,12.47-30.69,5.51-.14,0-6,1.08a1.35,1.35,0,0,0-.94.71h0l-12.1,22.48-23.79-19.42a1.36,1.36,0,0,0-.87-.29h0l-39.37.29Zm40.32,63-22.34-18.24V116.67l22.34,18.24Zm2.73-23.47,10.16-18.87v20.93l-10.16,18.87Zm-68.48-19.13,40.68-.3v24l-40.68.3Zm81.37,19.91V111.47l4.88-.88.14,0L568,104.52v23.92Z"/>
    <g>
      <path class="a" d="M936.59,85.85c-8.15-3.95-18.71-5-29-2.82a35.1,35.1,0,0,0-12.95,5.37,18.54,18.54,0,0,0-5.43,5.8c-1.41,2.33-1.53,4.64-1.53,7.2a1.37,1.37,0,0,0,.06.4l.21.73a13.16,13.16,0,0,0,1.09,2.89c5.74,10.29,20.16,12.16,26.1,12.48.67,0,1.6.07,2.72.07,6.05,0,17.71-1,25.05-8,4.59-4.38,6-9.33,4.2-14.29C945.69,91.8,942.24,88.59,936.59,85.85Zm-21.28,29.33a44.73,44.73,0,0,1-13.6-2.81c8.08-3.23,17.12-3.86,26.94-1.79a29,29,0,0,1,5.47,1.81C926.74,115.45,918.32,115.34,915.31,115.17ZM941,108a20.55,20.55,0,0,1-3.8,2.82,36.42,36.42,0,0,0-8-2.9c-11.29-2.37-21.64-1.39-30.79,2.89a17.77,17.77,0,0,1-7-6.7,11,11,0,0,1-.85-2.32l-.17-.57a10.21,10.21,0,0,1,1.13-5.58,15.83,15.83,0,0,1,4.64-5,32.44,32.44,0,0,1,12-4.95c9.69-2,19.61-1.08,27.23,2.61,5,2.42,8,5.14,9.18,8.31C946,100.54,944.85,104.36,941,108Z"/>
      <path class="a" d="M980.47,117.85c0-.34,0-.67,0-1V98.71c0-4.84-2.06-8.85-4.07-12.13-.13-.21-.23-.4-.32-.57a2.64,2.64,0,0,0-3.16-1.68l-3,.49a26.31,26.31,0,0,0-2.72.64,17.67,17.67,0,0,1-3.23.67h0l-1.28-1.29c-.23-.23-.46-.48-.69-.72V76.74c0-.14,0-.34,0-.56a4,4,0,0,0-.27-2.59,4,4,0,0,0-2.14-1.3c-.2-.07-.38-.13-.51-.19l-2.71-1.29a43.61,43.61,0,0,0-4.77-2L946.3,67a2.7,2.7,0,0,0-3.22.68l-2.18,1.84a12.7,12.7,0,0,0-1.78,1.83l-.33.43-.18.24-.13,0c-1.09-.16-2.23-.43-3.32-.68L933.43,71a77.68,77.68,0,0,0-8.75-1.16l-.72-.07V68.48h-.07c0-.21,0-.41,0-.62l0-.33c-.14-2.63-.31-3.45-.83-4s-1.73-.61-3.42-.47c-.27,0-.51,0-.65,0l-3.12,0c-2.33,0-4.43.11-6.42.3l-3.24.31h-.66a5.51,5.51,0,0,0-3.12.54c-1,.74-1.12,2.38-.85,6.65v.15a62,62,0,0,0-7.45,1.84l-2.42.81c-.27.09-.6.23-.95.37a10.4,10.4,0,0,1-1.44.54,11.33,11.33,0,0,1-2.13-1.5A14.54,14.54,0,0,0,885.58,72l-2.26-1.34a2.89,2.89,0,0,0-3.44-.15l-4.54,2.24a42.58,42.58,0,0,0-5,3.08l-1.92,1.3c-1.47,1-1.73,1.47-1.73,3.21V90.69c-1.54-.2-3-.36-4.51-.44l-1-.08a16.68,16.68,0,0,0-2.33-.1h-.24a1.81,1.81,0,0,0-1.59.65,3.82,3.82,0,0,0-.73,1.91c0,.15-.05.29-.08.39A23,23,0,0,0,855,99.41c0,2.23,0,4.46,0,6.69v19.38c0,.18,0,.33,0,.46a2.08,2.08,0,0,0,1.21,2.32,4,4,0,0,0,1.84.21,3.87,3.87,0,0,1,.4,0l2.69.12v4.33c0,.68,0,1.39-.07,2.12a22.75,22.75,0,0,0,.09,4.81c.3,1.79,2.31,3.51,3.93,4.88.34.29.65.55.9.78a32.82,32.82,0,0,0,4.11,3.07c.52.35,1,.7,1.55,1a3.13,3.13,0,0,0,3.74.32l.52-.23,1.14-.46c.8-.32,1.61-.64,2.39-1a10,10,0,0,0,1.36-.85,13.32,13.32,0,0,1,1.38-.9,11.54,11.54,0,0,1,2.06,1.06c.41.24.77.46,1,.57a57,57,0,0,0,6.23,2.54v.23c0,.28,0,.72-.07,1.23-.22,3.2-.27,5.21.86,6.07a7,7,0,0,0,3.26.86c.33,0,.63.07.82.11l3,.6c2.19.45,4.38.7,6.62.94l3.49.37.35.06a6.37,6.37,0,0,0,1.2.16,1.93,1.93,0,0,0,.82-.16,3,3,0,0,0,1.37-1.9c0-.11.08-.21.11-.29.11-.24.23-.48.34-.72a11.1,11.1,0,0,0,.78-1.88,5,5,0,0,0,.16-1.12c0-.1,0-.23,0-.35,1.36-.07,2.79,0,4.16,0l2.25,0a45.05,45.05,0,0,0,5-.36l1.37-.15c.32,0,.7-.1,1.09-.17A8,8,0,0,1,930,154a5.28,5.28,0,0,1,.26.59,6.7,6.7,0,0,0,.56,1.19,18.31,18.31,0,0,0,1.56,2c.24.29.49.58.72.87a2.76,2.76,0,0,0,3.41,1.06l.56-.13,6.18-1.34a44,44,0,0,0,4.91-1.48l1.72-.58c.14,0,.35-.09.59-.14,1.34-.3,2.34-.57,2.85-1.31s.43-1.76.29-3.43c0-.31-.05-.57-.05-.73v-4.09a38.43,38.43,0,0,0,3.69-2.38l1.06-.74c.14-.1.29-.22.46-.35l.4-.34a3.13,3.13,0,0,1,.4.16l.41.17.33.13a26.22,26.22,0,0,0,2.76,1c.31.09.71.23,1.16.39,2.38.84,4.3,1.43,5.6.72a8.76,8.76,0,0,0,2.17-2.06c.23-.27.44-.53.63-.72l.63-.61a15.5,15.5,0,0,0,1.45-1.52,19.18,19.18,0,0,0,1.35-2c.19-.31.37-.62.57-.91s.28-.4.43-.61a6.77,6.77,0,0,0,1.26-2.3,16.39,16.39,0,0,0,.13-4.79c0-.68-.09-1.34-.09-1.94v-5.47a2.8,2.8,0,0,0,1-.34,1.47,1.47,0,0,0,1-1.44,1.81,1.81,0,0,1,0-.26A12.14,12.14,0,0,0,980.47,117.85ZM959.2,77.13v4.49c-1-.77-2.07-1.48-3.11-2.15l-.09-.06C957.13,78.67,958.19,77.9,959.2,77.13Zm-89.82,4.18c1.5.82,3,1.63,4.71,2.38a28.54,28.54,0,0,0-3,3.14,17.85,17.85,0,0,0-1.34,2.06l-.32.54Zm-8,33.51c-.51.78-.44,1.84-.29,3.24,0,.31.07.58.07.77v7l-2.56-.11c-.18,0-.41,0-.66,0h-.17c0-.09,0-.18,0-.27V106.11c0-.77,0-1.53,0-2.29,1.8.07,3.72.13,5.71.13.92,0,1.86,0,2.79-.07v8.75l-1.05.4c-.12,0-.35.11-.63.2C862.65,113.8,861.77,114.15,861.33,114.82Zm10.81,20.88c0,1.71,0,3.42,0,5.13v5.82l-.5-.34a30.93,30.93,0,0,1-3.78-2.8c-.27-.25-.61-.54-1-.85-.93-.79-2.87-2.44-3-3.25a20.78,20.78,0,0,1-.06-4.23c0-.77.08-1.53.08-2.26v-14a29.6,29.6,0,0,0,3.13,2.83c.69.52,1.41,1,2.13,1.5l1,.71c.26.18.54.35.81.52.87.53,1.16.76,1.17,1.07C872.23,128.9,872.18,132.36,872.14,135.7Zm8.67,8.47a12.73,12.73,0,0,0-1.6,1,9.09,9.09,0,0,1-1,.62c-.73.34-1.48.64-2.24.94l-1.18.48h0v-6.38c0-1.69,0-3.39,0-5.09,0-3.35.09-6.8,0-10.2,2-.85,4-1.71,6-2.72Zm11-12.73a12.31,12.31,0,0,0-.39,4.84c0,.51.05,1,.05,1.46v10a52.13,52.13,0,0,1-5-2.11c-.19-.09-.48-.26-.8-.46a17.63,17.63,0,0,0-2.07-1.1V122.73l.21.11c1.52.78,3.1,1.58,4.72,2.23s3.43,1.22,5.12,1.75l.66.21A18.38,18.38,0,0,0,891.8,131.44ZM910,136.86c0,.31-.06.58-.06.77v20.8l-.28,0-3.49-.37c-2.25-.24-4.29-.48-6.36-.9l-3-.6c-.25,0-.62-.1-1-.15s-1.35-.16-1.76-.26a21.85,21.85,0,0,1,0-3.77c0-.6.07-1.1.07-1.42V137.74c0-.51,0-1-.06-1.6s-.07-1.39,0-2c5.58,1.1,10.53,1.87,15.44,2.4l.52,0h0C910,136.65,910,136.77,910,136.86Zm19.49,14.47a14.48,14.48,0,0,0-1.59.22c-.32.06-.63.11-.89.14l-1.4.15a52.55,52.55,0,0,1-6.86.32c-1.3,0-2.64,0-4,0V133c0-.17,0-.49,0-.9s-.09-1.29-.09-1.94c.68,0,1.62.08,2.06.11l.87,0h1.37c.94,0,1.88,0,2.81,0,2.17-.05,4.36-.32,6.48-.57l1.25-.14Zm4,3.52c-.11-.16-.24-.31-.34-.47a4.58,4.58,0,0,1-.32-.72,5.66,5.66,0,0,0-.61-1.23v-19.5c.37.5.77,1,1.18,1.54a15.54,15.54,0,0,0,0,2.9c0,.34,0,.63,0,.8Zm16.41-1.4c-.35.08-.65.15-.85.21l-1.77.6a41.75,41.75,0,0,1-4.6,1.39L936.51,157l-.29.07V138.17c0-.21,0-.57-.05-1s-.11-1.51-.08-2.1c.58-.14,1.62-.28,2.12-.35s.83-.11,1-.16l1.42-.31,2.69-.58a61.72,61.72,0,0,0,6.65-2l.85-.29v19.3c0,.21,0,.55.06,1s.09,1.11.09,1.57C950.67,153.29,950.18,153.39,949.9,153.45Zm7.84-13a7,7,0,0,0-.68.51l-.27.22-1.08.76c-.72.5-1.41,1-2.12,1.44V131.34a4.85,4.85,0,0,0-1.38-4c-.21-.25-.41-.51-.61-.77a17.71,17.71,0,0,0-1.43-1.68c-.28-.27-.56-.53-.86-.77l.18-.08c1.47-.68,3-1.38,4.44-2.19a38.93,38.93,0,0,0,3.81-2.52Zm9.86-19.35c0,.26,0,.55,0,.86v20.82c-.81-.2-1.84-.56-2.39-.76s-1-.35-1.34-.45a24.2,24.2,0,0,1-2.47-.9l-.66-.27-.23-.1v-21.7c2.52.92,5,1.64,7.15,2.24C967.61,120.94,967.6,121,967.6,121.13Zm.33-1.2.24-.86h0Zm1.58-2.61-1,1-.12,0-.06.23h0l.06-.23a81.38,81.38,0,0,1-8.78-2.87,1.36,1.36,0,0,0-1.27.13h0c-.61.42-1.22.86-1.84,1.31a40.66,40.66,0,0,1-3.9,2.6c-1.36.76-2.83,1.44-4.26,2.09-.74.34-1.48.68-2.21,1a1.37,1.37,0,0,0-.27,2.28l.86.68a15.86,15.86,0,0,1,1.51,1.27,15.41,15.41,0,0,1,1.21,1.43l.46.58-.8.27a59.72,59.72,0,0,1-6.35,2l-2.66.58-1.43.31c-.16,0-.45.07-.81.12a21,21,0,0,0-2.55.44,25.56,25.56,0,0,1-3.2-5,1.36,1.36,0,0,0-1.37-.77v0c-.93.09-1.87.21-2.81.32-2.06.25-4.18.5-6.23.55-.91,0-1.82,0-2.72,0h-1.39l-.67,0c-2.88-.21-3.8-.17-4.41.45a2,2,0,0,0-.53,1.33,20.9,20.9,0,0,1-1.48,4.51l-.35,0h-.32c-4.77-.51-9.61-1.27-15-2.34a20.82,20.82,0,0,1,2.8-4.27,1.36,1.36,0,0,0-.63-2.15c-.84-.28-1.69-.55-2.54-.81-1.64-.51-3.34-1-4.92-1.68s-3-1.38-4.49-2.13c-.74-.38-1.48-.76-2.22-1.12a1.38,1.38,0,0,0-1.27.05h0a67,67,0,0,1-7.84,3.72,8.83,8.83,0,0,0-1.3-.92c-.22-.14-.45-.27-.66-.42l-1.06-.73c-.68-.46-1.36-.93-2-1.42a34,34,0,0,1-3.65-3.42l-.14-.15.53-.16c.38-.11.68-.21.85-.27a57.59,57.59,0,0,1,6.3-2,1.37,1.37,0,0,0,.8-2c-.33-.52-.69-1-1.06-1.58a20.9,20.9,0,0,1-1.84-3,20.3,20.3,0,0,1-1-3.16c-.15-.58-.3-1.15-.47-1.69a1.36,1.36,0,0,0-1.37-.95v0c-3.38.17-6.75.09-9.78,0,0-.54,0-1.08,0-1.62a20.34,20.34,0,0,1,1-5.69c0-.17.09-.39.14-.65l.07-.34a17,17,0,0,1,1.91.1L862,93c1.91.11,3.86.32,5.94.64l.21,0a2.15,2.15,0,0,0,2.47-1,8,8,0,0,0,.65-1l.22-.37c.2-.32.4-.65.59-1a15.58,15.58,0,0,1,1.13-1.76A26.73,26.73,0,0,1,876,85.66c.52-.48,1-1,1.51-1.44A1.36,1.36,0,0,0,877,82a62.29,62.29,0,0,1-6.42-3.09l1.31-.89a39.78,39.78,0,0,1,4.61-2.82l4.54-2.24a4.61,4.61,0,0,1,.44-.19c.11.05.23.14.39.23l2.28,1.35a14.17,14.17,0,0,1,1.24.95c1.56,1.26,2.67,2.09,3.73,2.1h0a7.29,7.29,0,0,0,2.6-.75c.28-.12.54-.23.75-.3l2.42-.81a64.75,64.75,0,0,1,7.79-1.89l2.3-.47a1.36,1.36,0,0,0,1-1.91,19.66,19.66,0,0,1-1.45-4.76l1,0c.38,0,.71,0,.92,0l3.24-.31c1.91-.18,3.93-.28,6.17-.29l3.12,0c.19,0,.5,0,.86-.05s.75-.06,1.15-.07c0,.38.1,1,.15,2l0,.37a9.34,9.34,0,0,1-.19,2.09l-.1.62a1.37,1.37,0,0,0,1.21,1.56l2.35.23a75.73,75.73,0,0,1,8.45,1.11l1.68.38c1.15.26,2.34.54,3.53.72a2.66,2.66,0,0,0,2.9-1.29l.27-.35a10,10,0,0,1,1.42-1.46l2.19-1.84.31-.26.26.08,5.27,1.79a41.13,41.13,0,0,1,4.48,1.87l2.71,1.29.11,0a47,47,0,0,1-5.23,3.57,1.37,1.37,0,0,0-.09,2.31c.63.43,1.27.85,1.93,1.27a37.58,37.58,0,0,1,3.62,2.54,19,19,0,0,1,1.61,1.58c.29.3.57.61.86.89L962,88a2.27,2.27,0,0,0,2.25.8,19.87,19.87,0,0,0,3.66-.76,24.25,24.25,0,0,1,2.44-.58l3-.49.16,0,.16.29c.11.21.24.45.4.72a25.3,25.3,0,0,1,3.2,7.08l-3.62.54c-.7.11-1.54.22-2.41.26-.17,0-.42,0-.69,0a5.65,5.65,0,0,0-2.73.31l-.15.07a1.54,1.54,0,0,0-1,1.61c0,.08,0,.2,0,.38,0,.34,0,.69,0,1v3l-1.46,4.79a1.37,1.37,0,0,0,1.1,1.75l1.52.24a68.79,68.79,0,0,1,6.9,1.53l.17,0-.06.1a28.9,28.9,0,0,1-2.42,3.57C971.53,115.34,970.5,116.34,969.5,117.31ZM869,111.72V110c.32.49.65,1,1,1.45Zm99.06-4,0,.18,0-.18Zm7.66,26.2a5.05,5.05,0,0,1-.81,1.34c-.18.25-.36.5-.52.74s-.41.65-.61,1a16.94,16.94,0,0,1-1.15,1.75,13.35,13.35,0,0,1-1.2,1.26l-.69.67c-.13.13-.27.29-.42.47V122c0-.24,0-.46,0-.66a5.52,5.52,0,0,0,0-1l1.09-1.07c1-1,2.12-2.07,3.08-3.2a19.41,19.41,0,0,0,1.16-1.58v13.35c0,.65,0,1.38.1,2.12A14.34,14.34,0,0,1,975.69,133.91Zm2-25.29a4.44,4.44,0,0,0-1.92-.61l-.38-.07c-1.9-.5-3.92-1-6-1.38V99.23c0-.22,0-.43,0-.65.34,0,.79,0,1,0s.69,0,.92,0c1-.05,1.91-.17,2.68-.29l3.64-.54c0,.31,0,.61,0,.93Z"/>
    </g>
  </g>
  <g>
    <path class="a" d="M971.6,472.85l-53.19-30.71a1.37,1.37,0,0,0-1.36,0l-53.19,30.71a1.36,1.36,0,0,0-.68,1.18v61.41a1.36,1.36,0,0,0,.68,1.18l53.19,30.71a1.37,1.37,0,0,0,1.36,0l53.19-30.71a1.36,1.36,0,0,0,.68-1.18V474A1.36,1.36,0,0,0,971.6,472.85Zm-53.87-28L968.19,474l-50.46,29.13L867.28,474Zm-51.82,31.5,50.46,29.13v58.26l-50.46-29.13Zm53.19,87.39V505.53l50.46-29.13v58.26Z"/>
    <path class="a" d="M570.62,498.21c-1.06-12.95-6.61-25.48-17.25-33.35-10.34-7.63-23.55-8.59-35.52-4.62a61.92,61.92,0,0,0-16.32,8.46,99.37,99.37,0,0,0-7.89,6.39c-1.18,1-2.29,2.15-3.41,3.24-.42.41-.84.82-1.25,1.25-.87.9-.78,1.23-1.88.81-6.41-2.4-12.41-6.14-18.39-9.4-5.05-2.75-10.89-7-16.86-4.67a10.65,10.65,0,0,0-5.37,15,37.22,37.22,0,0,0,6.12,7.36c2,2.08,4,4.16,6.1,6.13,3.07,2.85,6.12,5.72,9.21,8.56.63.58,2,1.36,2,2s-.88,1.57-1.13,2.06c-.46.88-.9,1.77-1.34,2.65a74.83,74.83,0,0,0-6.56,17.77c-1.31,6-1.31,12.67,2.35,17.91s10.68,6.72,16.63,5.19c6.18-1.59,11.57-5.27,16.63-9,2.73-2,5.34-4.13,8-6.28,1.22-1,2.47-2,3.67-3,.63-.54.73-.85,1.44-.76A11.52,11.52,0,0,1,512,533c11.32,4.78,24.68,7.54,36.55,3,12.08-4.59,19.66-15.63,21.59-28.18A50.3,50.3,0,0,0,570.62,498.21ZM482.38,481.3l3.54,1.53c-1.47,1.7-2.94,3.39-4.34,5.15-5.62-5-11-10.18-16.24-15.61C471,475.49,476.62,478.42,482.38,481.3Zm-22.37,11c-2.2-2.19-4.49-4.33-6.58-6.63s-4.93-5-5.44-8.26a7.81,7.81,0,0,1,3.25-7.74c2.8-2,6.15-1.53,9.09-.12a2.32,2.32,0,0,1,.77.42c.25.34-.07,1,.19,1.65a4.62,4.62,0,0,0,.68.95c.78.95,1.72,1.79,2.58,2.67,2.57,2.64,5.11,5.33,7.69,8a161.36,161.36,0,0,0,14.18,12.45,200.61,200.61,0,0,0,17.64,13l-9.48,8.48c-.48.43-1.24,1.43-1.84,1.64s-.1.21-.84-.1c-1.65-.68-3.31-2.25-4.76-3.31-6.34-4.61-12.44-9.59-18.29-14.8C465.84,497.9,463,495.09,460,492.35Zm24.53,33c-.65.47-1.3,1-2,1.4a78.59,78.59,0,0,1,3.8-8.59c1.26.92,2.55,1.8,3.84,2.68Zm13.4,12.11a98.86,98.86,0,0,1-12.49,8.39c-4.09,2.15-9.05,3.82-13.67,2.58-11.55-3.1-9.52-17.25-6.65-25.86a93.7,93.7,0,0,1,7-15.6q4.75,4,9.7,7.84a9.09,9.09,0,0,1,1.9,1.4c.42.59.35.1.06.93a11.32,11.32,0,0,1-.55,1.11c-1,2-1.86,4-2.68,6-.33.81-.62,1.62-.91,2.44a9.9,9.9,0,0,1-.84,2.46,8.18,8.18,0,0,1-2.58,1.38c-.94.44-3,.61-3.43,1.52-.76,1.62,1,2.11,2.23,1.86a13.57,13.57,0,0,0,2.8-1.16,38.11,38.11,0,0,0,5-2.89c6.7-4.44,12.68-9.93,18.73-15.19,2.77-2.41,5.42-5,8.05-7.46a84.94,84.94,0,0,0,7.5-7.56c.77-.94,1.58-2.82-.33-3.17-1.27-.23-2.15,1.88-2.88,2.71-1.59,1.81-3.38,3.44-5.1,5.13-.78.76-.68.81-1.72.62-1.47-.28-2.92-.6-4.38-.91-1.94-.41-3.55-2.05-5.15-3.18,2-2.46,4-4.83,6.22-7.1,1.11-1.15,2.26-2.26,3.43-3.35,1-.9,1.61-.5,2.92-.27l10.23,1.77c3,.53,6.23,1.14,8.54,3.36,4.67,4.49,2.79,10.69-1,15-4.38,4.91-9.34,9.19-14.2,13.61C508.51,528.59,503.31,533.06,497.94,537.47ZM550.14,504c-.61,4.1-1.84,8.4-5.23,11.09-3.2,2.54-7.48,3.1-11.45,2.68a39.33,39.33,0,0,1-7.52-1.55c4.31-4.3,9.22-9.2,8.46-15.84-.8-7-6.87-9.93-13-11l-10.73-1.89c6.2-4.77,13.32-9.35,21.43-9.37s13.85,6.12,16.46,13.27A30.6,30.6,0,0,1,550.14,504ZM568,502.16c-.47,10-3.9,19.81-11.78,26.42s-18.55,8-28.45,6.34a66.12,66.12,0,0,1-16.37-5.19c3.61-3.24,7.31-6.41,10.83-9.74.88-.83,1.1-1.5,2.24-1.31s2.21.66,3.31.92a36.86,36.86,0,0,0,6.27,1c4.15.26,8.57-.44,12-2.93a17.39,17.39,0,0,0,6.35-10.39c1.93-8.55-.3-18.54-6.07-25.19-6.42-7.4-16-8-24.67-4.51-8.42,3.42-15.58,9.67-21.68,16.27-.74.81-1.46,1.62-2.17,2.46-.34.41-1.79,2.7-2.36,2.85s-2.41-1.72-2.92-2.11-1.12-.86-1.67-1.31c-1.15-.94-2.3-1.9-3.45-2.85-1-.8-2.59-1.7-3.31-2.74-.07-.11-.41-.23-.44-.36s1-1.3,1.23-1.53c.77-.93,1.57-1.83,2.36-2.75a85.4,85.4,0,0,1,20.45-17.58c7.68-4.6,16.63-7.73,25.68-7.34a34.11,34.11,0,0,1,23.73,11.24,43.17,43.17,0,0,1,10.6,24A52.93,52.93,0,0,1,568,502.16Z"/>
    <path class="a" d="M357.58,472.85,304.4,442.15a1.37,1.37,0,0,0-1.36,0l-53.19,30.71a1.36,1.36,0,0,0-.68,1.18v61.41a1.28,1.28,0,0,0,.16.64l0,0h0a1.32,1.32,0,0,0,.48.48h0L303,567.34a1.37,1.37,0,0,0,1.36,0l53.19-30.71a1.36,1.36,0,0,0,.68-1.18V474A1.36,1.36,0,0,0,357.58,472.85Zm-2,57.5-48.09-83.3,48.09,27.77Zm-1,3.73H252.89l50.82-88Zm-54.55-87-48.09,83.3V474.82Zm3.73,117.53-48.09-27.77h96.19Z"/>
    <path class="a" d="M774.92,488.87l-6.28-15.36a1.38,1.38,0,0,0-.43-.56l-36.75-28.47a1.38,1.38,0,0,0-.65-.27L714.38,442a1.39,1.39,0,0,0-.7.09l-43,17.59a1.37,1.37,0,0,0-.56.43L659.93,473.2a1.38,1.38,0,0,0-.27.65l-6.28,46.06a1.36,1.36,0,0,0,.09.7L659.74,536a1.38,1.38,0,0,0,.43.56L696.92,565a1.38,1.38,0,0,0,.65.27L714,567.51h.18a1.38,1.38,0,0,0,.52-.1l43-17.59a1.36,1.36,0,0,0,.56-.43l10.16-13.11a1.36,1.36,0,0,0,.27-.65L775,489.57A1.36,1.36,0,0,0,774.92,488.87Zm-9.1-14.32-9.59,34.54-41.07-5.6-15.69-38.36,31-17.92ZM689.41,539l25.38-32.77,41.07,5.6v35.85l-41.33,16.9ZM672,462l42.35-17.32,12.12,1.65-29.26,16.89-32.7,8.44Zm-9.78,13.08,34.71-9,15.69,38.36L687.25,537.3l-31-17.92Zm-.1,59.47-4.63-11.32,29.25,16.89,23.67,24.1-12.12-1.65Zm103.94.31-7.49,9.67V510.8l9-32.55,4.63,11.32Z"/>
    <g>
      <path class="a" d="M158,472.85l-53.19-30.71a1.37,1.37,0,0,0-1.36,0L50.3,472.85a1.36,1.36,0,0,0-.68,1.18v61.42a1.36,1.36,0,0,0,.68,1.18l53.19,30.71a1.37,1.37,0,0,0,1.36,0L158,536.63a1.36,1.36,0,0,0,.68-1.18V474A1.36,1.36,0,0,0,158,472.85ZM102.8,563.79,52.35,534.66V476.4l50.46,29.13Zm1.36-60.63L53.71,474l50.46-29.13L154.63,474ZM156,534.66l-50.46,29.13V505.53L156,476.4Z"/>
      <path class="a" d="M68,526.4l17.73,10.24a1.36,1.36,0,0,0,2-1.18V515a1.36,1.36,0,0,0-.68-1.18L69.39,503.56a1.36,1.36,0,0,0-2,1.18v20.47A1.36,1.36,0,0,0,68,526.4Zm17,6.69-13.63-7.87,13.63-7.87Zm-15-26L83.71,515l-13.63,7.87Z"/>
      <path class="a" d="M122.58,472.85l-17.73-10.23a1.37,1.37,0,0,0-1.36,0L85.76,472.85a1.37,1.37,0,0,0,0,2.36l17.73,10.24a1.37,1.37,0,0,0,1.36,0l17.73-10.24a1.37,1.37,0,0,0,0-2.36Zm-19.78,9.05L89.17,474l13.63-7.87Zm2.73,0V466.16L119.17,474Z"/>
      <path class="a" d="M121.22,536.63a1.37,1.37,0,0,0,1.36,0L140.3,526.4h0a1.36,1.36,0,0,0,.68-1.18V504.74a1.36,1.36,0,0,0-2-1.18L121.22,513.8a1.36,1.36,0,0,0-.68,1.18v20.47A1.36,1.36,0,0,0,121.22,536.63Zm17-29.53v15.74L124.63,515Zm-15,10.24,13.63,7.87-13.63,7.87Z"/>
    </g>
  </g>
</svg>
