<svg xmlns="http://www.w3.org/2000/svg" width="83.41" height="92" viewBox="0 0 83.41 92">
  <title>Blackspike_Cone</title>
  <path d="M41.87,92q-1.62,0-3.26-.07a59.53,59.53,0,0,1-23.54-5.55C10.66,84.24.37,78.17,0,68c-.17-4.86,2.29-8.63,4.68-12.27L40.88.45A1,1,0,0,1,41.72,0h0a1,1,0,0,1,.84.45L78.63,55.56l.74,1.11a29.11,29.11,0,0,1,2.84,4.9,15.22,15.22,0,0,1-.3,12.53c-3.76,8-12.56,12.35-19.28,14.62A64.58,64.58,0,0,1,41.87,92ZM41.72,2.83,6.41,56.76C4,60.38,1.86,63.72,2,67.94,2.33,77,11.86,82.6,15.94,84.58a57.55,57.55,0,0,0,22.75,5.35A63.9,63.9,0,0,0,62,86.83c6.35-2.15,14.66-6.25,18.11-13.58a13.25,13.25,0,0,0,.27-10.9,27.58,27.58,0,0,0-2.66-4.56L77,56.66Z"/>
</svg>
