<svg xmlns="http://www.w3.org/2000/svg" width="92" height="72.06" viewBox="0 0 92 72.06">
  <title>Blackspike_Gear</title>
  <g>
    <path d="M59.81,16.76c-6-2.89-13.71-3.65-21.23-2.07a25.72,25.72,0,0,0-9.49,3.93,13.59,13.59,0,0,0-4,4.25A9.45,9.45,0,0,0,24,28.15a1,1,0,0,0,0,.29l.16.53a9.64,9.64,0,0,0,.8,2.12c4.21,7.54,14.77,8.91,19.12,9.15.49,0,1.17.05,2,.05,4.44,0,13-.74,18.36-5.87,3.37-3.21,4.43-6.83,3.08-10.47C66.48,21.12,64,18.76,59.81,16.76ZM44.22,38.24a32.78,32.78,0,0,1-10-2.06A33.66,33.66,0,0,1,54,34.87a21.26,21.26,0,0,1,4,1.32C52.6,38.45,46.43,38.36,44.22,38.24ZM63.08,33A15.06,15.06,0,0,1,60.3,35a26.68,26.68,0,0,0-5.9-2.13c-8.27-1.74-15.86-1-22.56,2.12a13,13,0,0,1-5.11-4.91,8.05,8.05,0,0,1-.62-1.7L26,28a7.48,7.48,0,0,1,.83-4.09,11.6,11.6,0,0,1,3.4-3.64A23.77,23.77,0,0,1,39,16.65c7.1-1.49,14.37-.79,20,1.91,3.66,1.77,5.86,3.76,6.73,6.09C66.73,27.52,65.86,30.32,63.08,33Z"/>
    <path d="M92,40.2c0-.25,0-.49,0-.72V26.18a17,17,0,0,0-3-8.89c-.09-.15-.17-.3-.24-.42a1.94,1.94,0,0,0-2.32-1.23L84.2,16a19.28,19.28,0,0,0-2,.47,13,13,0,0,1-2.37.49h0L78.89,16l-.51-.53V10.08c0-.11,0-.25,0-.41a2.94,2.94,0,0,0-.2-1.9,2.9,2.9,0,0,0-1.57-.95l-.38-.14-2-.94a32,32,0,0,0-3.5-1.46L66.93,3a2,2,0,0,0-2.36.5L63,4.82a9.31,9.31,0,0,0-1.31,1.34l-.24.31-.13.18h-.1c-.8-.12-1.63-.31-2.44-.5L57.5,5.86A56.92,56.92,0,0,0,51.08,5L50.55,5V4H50.5c0-.15,0-.3,0-.46V3.33C50.39,1.4,50.26.8,49.87.41S48.61,0,47.37.06l-.48,0H44.61c-1.71,0-3.24.08-4.7.22L37.53.56H37A4,4,0,0,0,34.76,1c-.76.54-.82,1.75-.62,4.87v.11A45.45,45.45,0,0,0,28.68,7.3l-1.78.59c-.2.07-.44.17-.69.27a7.62,7.62,0,0,1-1.06.4,8.3,8.3,0,0,1-1.56-1.1,10.65,10.65,0,0,0-1.15-.86l-1.66-1a2.12,2.12,0,0,0-2.52-.11L14.94,7.15a31.2,31.2,0,0,0-3.69,2.26l-1.41,1a2.19,2.19,0,0,0-1.26,2.35V20.3C7.44,20.15,6.34,20,5.26,20l-.75-.06a12.22,12.22,0,0,0-1.71-.08H2.63a1.32,1.32,0,0,0-1.17.48,2.8,2.8,0,0,0-.54,1.4c0,.11,0,.21-.06.29a16.89,16.89,0,0,0-.8,4.69C0,28.33,0,30,0,31.6V45.8c0,.13,0,.24,0,.34a1.52,1.52,0,0,0,.89,1.7A2.9,2.9,0,0,0,2.25,48h.29l2,.09v3.18c0,.5,0,1-.05,1.55a16.67,16.67,0,0,0,.07,3.53c.22,1.31,1.69,2.57,2.88,3.58l.66.57a24.05,24.05,0,0,0,3,2.25l1.13.77a2.29,2.29,0,0,0,2.74.23l.38-.17.84-.34c.59-.23,1.18-.47,1.75-.74a7.32,7.32,0,0,0,1-.62,9.76,9.76,0,0,1,1-.66,8.45,8.45,0,0,1,1.51.78c.3.18.56.33.74.42a41.75,41.75,0,0,0,4.57,1.86v.17c0,.2,0,.52,0,.9-.16,2.35-.2,3.82.63,4.45a5.13,5.13,0,0,0,2.39.63l.6.08,2.16.44c1.6.33,3.21.51,4.85.69l2.56.27.26,0a4.66,4.66,0,0,0,.88.12,1.41,1.41,0,0,0,.6-.12,2.22,2.22,0,0,0,1-1.39l.08-.21c.08-.17.17-.35.25-.53a8.14,8.14,0,0,0,.57-1.37,3.68,3.68,0,0,0,.12-.82c0-.08,0-.17,0-.25,1-.05,2,0,3.05,0l1.65,0A33,33,0,0,0,52,67.1L53,67c.23,0,.51-.07.8-.13a5.9,5.9,0,0,1,1.2-.14,3.87,3.87,0,0,1,.19.44,4.91,4.91,0,0,0,.41.87,13.42,13.42,0,0,0,1.14,1.5c.18.21.36.42.52.64a2,2,0,0,0,2.5.77l.41-.1,4.53-1a32.25,32.25,0,0,0,3.59-1.08l1.26-.43.44-.1c1-.22,1.71-.41,2.09-1a4.06,4.06,0,0,0,.21-2.51c0-.23,0-.42,0-.53v-3A28.16,28.16,0,0,0,75,59.5l.78-.54.33-.26.3-.25a2.3,2.3,0,0,1,.3.12l.3.13.24.1a19.21,19.21,0,0,0,2,.73c.23.06.52.17.85.29,1.74.62,3.15,1,4.11.53a6.42,6.42,0,0,0,1.59-1.51c.17-.2.33-.39.46-.53l.46-.45a11.35,11.35,0,0,0,1.06-1.12,14.06,14.06,0,0,0,1-1.49c.14-.23.27-.45.42-.67s.2-.29.31-.44a5,5,0,0,0,.92-1.69,12,12,0,0,0,.1-3.51c0-.5-.07-1-.07-1.42v-4a2,2,0,0,0,.73-.25,1.08,1.08,0,0,0,.74-1.05,1.33,1.33,0,0,1,0-.19A8.89,8.89,0,0,0,92,40.2ZM76.38,10.37v3.29c-.74-.56-1.51-1.08-2.28-1.58L74,12C74.87,11.5,75.64,10.93,76.38,10.37ZM10.57,13.43c1.1.6,2.23,1.19,3.45,1.74a20.92,20.92,0,0,0-2.23,2.3,13.08,13.08,0,0,0-1,1.51l-.24.4ZM4.67,38a3.68,3.68,0,0,0-.21,2.38c0,.22,0,.42,0,.57v5.14L2.63,46H2c0-.06,0-.13,0-.2V31.6c0-.56,0-1.12,0-1.68,1.32.05,2.73.1,4.18.1.67,0,1.36,0,2,0v6.41l-.77.29L7,36.81C5.63,37.23,5,37.49,4.67,38Zm7.92,15.3c0,1.25,0,2.51,0,3.76V61.3l-.37-.25A22.66,22.66,0,0,1,9.42,59c-.2-.18-.45-.39-.72-.63C8,57.8,6.59,56.59,6.5,56a15.23,15.23,0,0,1,0-3.1c0-.57.06-1.12.06-1.65V41A21.69,21.69,0,0,0,8.8,43.05c.51.38,1,.74,1.56,1.1l.75.52c.19.13.39.26.59.38.63.39.85.56.86.78C12.66,48.3,12.62,50.83,12.59,53.28Zm6.35,6.21a9.33,9.33,0,0,0-1.17.73,6.66,6.66,0,0,1-.7.45c-.53.25-1.09.47-1.64.69l-.87.35h0V57c0-1.24,0-2.48,0-3.73,0-2.45.06-5,0-7.48,1.49-.62,2.95-1.26,4.39-2Zm8-9.33a9,9,0,0,0-.29,3.54c0,.37,0,.73,0,1.07v7.36A38.2,38.2,0,0,1,23,60.59c-.14-.07-.35-.19-.59-.34a12.92,12.92,0,0,0-1.52-.81V43.78l.15.08c1.12.57,2.27,1.16,3.46,1.63s2.51.89,3.75,1.28l.48.15A13.47,13.47,0,0,0,27,50.16Zm13.34,4c0,.23,0,.43,0,.56V69.93l-.2,0-2.56-.27c-1.65-.18-3.14-.35-4.66-.66l-2.16-.44c-.18,0-.46-.07-.77-.11s-1-.12-1.29-.19a16,16,0,0,1,0-2.76c0-.44.05-.81.05-1V54.78c0-.37,0-.77,0-1.17s-.05-1,0-1.5c4.09.81,7.71,1.37,11.31,1.76l.38,0h0C40.35,54,40.34,54.07,40.34,54.14Zm14.28,10.6a10.61,10.61,0,0,0-1.17.16c-.24,0-.46.08-.65.1l-1,.11a38.5,38.5,0,0,1-5,.23c-1,0-1.94,0-2.91,0V51.29c0-.12,0-.36,0-.66s-.06-.95-.07-1.42c.5,0,1.19.06,1.51.08l.64,0h1c.69,0,1.38,0,2.06,0,1.59,0,3.2-.23,4.75-.42l.92-.1Zm2.93,2.58c-.08-.12-.18-.23-.25-.35a3.35,3.35,0,0,1-.24-.53,4.14,4.14,0,0,0-.44-.9V51.25c.27.37.57.75.86,1.13a11.39,11.39,0,0,0,0,2.13c0,.25,0,.46,0,.58Zm12-1c-.25.06-.48.11-.62.16l-1.29.44a30.59,30.59,0,0,1-3.37,1l-4.52,1-.21.05V55.09c0-.15,0-.42,0-.73s-.08-1.11-.06-1.54c.43-.11,1.19-.21,1.55-.25l.76-.11,1-.22,2-.43a45.22,45.22,0,0,0,4.87-1.49l.62-.21V64.24c0,.15,0,.41,0,.7s.07.81.06,1.15C70.13,66.17,69.77,66.25,69.57,66.29Zm5.74-9.51a5.13,5.13,0,0,0-.5.37l-.2.16-.79.56c-.53.37-1,.73-1.55,1.06V50.09a3.55,3.55,0,0,0-1-3l-.45-.56a13,13,0,0,0-1-1.23c-.2-.2-.41-.39-.63-.57l.13-.06c1.08-.5,2.2-1,3.26-1.6a28.52,28.52,0,0,0,2.79-1.85ZM82.53,42.6c0,.19,0,.4,0,.63V58.49c-.6-.14-1.35-.41-1.75-.56s-.72-.25-1-.33A17.73,17.73,0,0,1,78,56.94l-.48-.2-.17-.07V40.77c1.85.67,3.66,1.2,5.24,1.64C82.54,42.47,82.54,42.54,82.53,42.6Zm.24-.88.17-.63h0Zm1.15-1.91-.72.71-.09,0,0,.17h0l0-.17a59.63,59.63,0,0,1-6.43-2.1,1,1,0,0,0-.93.1h0c-.45.31-.9.63-1.35,1a29.79,29.79,0,0,1-2.86,1.91c-1,.55-2.08,1.05-3.12,1.53l-1.62.76a1,1,0,0,0-.2,1.67l.63.5a11.62,11.62,0,0,1,1.11.93,11.29,11.29,0,0,1,.88,1l.34.43-.59.2a43.76,43.76,0,0,1-4.65,1.43l-1.95.42-1,.22-.59.09a15.38,15.38,0,0,0-1.87.32,18.73,18.73,0,0,1-2.34-3.65,1,1,0,0,0-1-.56h0l-2.06.24c-1.51.18-3.06.37-4.56.41-.66,0-1.33,0-2,0h-1l-.49,0c-2.11-.15-2.79-.13-3.23.33a1.5,1.5,0,0,0-.39,1,15.32,15.32,0,0,1-1.08,3.3h-.49c-3.5-.38-7-.93-11-1.71A15.26,15.26,0,0,1,31.23,47a1,1,0,0,0-.46-1.58l-1.86-.59c-1.2-.38-2.45-.76-3.61-1.23s-2.21-1-3.29-1.56l-1.63-.82a1,1,0,0,0-.93,0h0A49.06,49.06,0,0,1,13.7,44a6.47,6.47,0,0,0-1-.68c-.16-.1-.33-.2-.49-.31l-.77-.53c-.5-.34-1-.68-1.48-1A24.91,24.91,0,0,1,7.33,39l-.11-.11.39-.12.62-.2a42.2,42.2,0,0,1,4.61-1.47,1,1,0,0,0,.59-1.5c-.24-.38-.51-.77-.78-1.16a15.31,15.31,0,0,1-1.35-2.2,14.87,14.87,0,0,1-.74-2.32c-.11-.42-.22-.84-.34-1.24a1,1,0,0,0-1-.69h0c-2.48.13-4.95.06-7.16,0,0-.4,0-.79,0-1.19a14.9,14.9,0,0,1,.72-4.17c0-.12.07-.29.1-.47l0-.25a12.46,12.46,0,0,1,1.4.07l.81.06c1.4.08,2.83.23,4.35.47l.15,0a1.58,1.58,0,0,0,1.81-.74,5.82,5.82,0,0,0,.47-.73l.16-.27c.15-.23.29-.48.44-.73a11.42,11.42,0,0,1,.83-1.29,19.59,19.59,0,0,1,2-2.1c.38-.35.75-.7,1.11-1.06a1,1,0,0,0-.33-1.63,45.64,45.64,0,0,1-4.7-2.27l1-.65a29.15,29.15,0,0,1,3.38-2.07L19.15,7.3l.32-.14.29.17,1.67,1a10.38,10.38,0,0,1,.91.69c1.14.93,2,1.53,2.74,1.54h0A5.34,5.34,0,0,0,27,10c.2-.09.39-.17.55-.22l1.77-.59A47.44,47.44,0,0,1,35,7.81l1.69-.34a1,1,0,0,0,.7-1.4,14.4,14.4,0,0,1-1.06-3.49H37c.28,0,.52,0,.67,0l2.38-.23c1.4-.13,2.88-.2,4.52-.21H46.9l.63,0c.19,0,.55,0,.84-.05,0,.28.07.73.11,1.43l0,.27a6.84,6.84,0,0,1-.14,1.53l-.07.45a1,1,0,0,0,.89,1.14L50.9,7a55.49,55.49,0,0,1,6.19.81l1.23.28c.84.19,1.71.39,2.59.53A2,2,0,0,0,63,7.68l.2-.26a7.34,7.34,0,0,1,1-1.07L65.87,5l.23-.19.19.06,3.86,1.31a30.14,30.14,0,0,1,3.28,1.37l2,.94.08,0a34.41,34.41,0,0,1-3.83,2.61,1,1,0,0,0-.07,1.69c.46.31.93.62,1.41.93a27.54,27.54,0,0,1,2.65,1.86,13.94,13.94,0,0,1,1.18,1.16l.63.65.93.93a1.66,1.66,0,0,0,1.65.59,14.56,14.56,0,0,0,2.68-.55A17.77,17.77,0,0,1,84.52,18l2.21-.36.12,0,.11.21c.08.16.18.33.3.52a18.54,18.54,0,0,1,2.34,5.19L87,23.91c-.52.08-1.13.16-1.77.19-.13,0-.31,0-.5,0a4.14,4.14,0,0,0-2,.23l-.11.05a1.13,1.13,0,0,0-.71,1.18c0,.06,0,.15,0,.28s0,.5,0,.75V28.8l-1.07,3.51a1,1,0,0,0,.8,1.28l1.12.17a50.41,50.41,0,0,1,5.05,1.12l.12,0,0,.08a21.17,21.17,0,0,1-1.77,2.62C85.41,38.36,84.66,39.1,83.93,39.81Zm-73.66-4.1V34.44c.23.36.48.72.72,1.06Zm72.58-2.94,0,.13,0-.13ZM88.46,52a3.7,3.7,0,0,1-.59,1c-.14.18-.27.37-.38.54s-.3.48-.45.72a12.41,12.41,0,0,1-.85,1.28,9.78,9.78,0,0,1-.88.92l-.5.49-.31.34v-14c0-.18,0-.34,0-.48a4,4,0,0,0,0-.72l.8-.79c.77-.74,1.56-1.51,2.26-2.35a14.23,14.23,0,0,0,.85-1.16v9.78c0,.48,0,1,.07,1.56A10.51,10.51,0,0,1,88.46,52Zm1.48-18.53A3.26,3.26,0,0,0,88.54,33l-.28,0c-1.39-.36-2.87-.73-4.41-1V26.56c0-.16,0-.32,0-.47.25,0,.58,0,.77,0s.51,0,.67,0c.73,0,1.4-.13,2-.21l2.66-.39c0,.23,0,.45,0,.68Z"/>
  </g>
</svg>
