<svg xmlns="http://www.w3.org/2000/svg" width="91.87" height="61.48" viewBox="0 0 91.87 61.48">
  <title>Blackspike_Torus 2</title>
  <g>
    <path d="M83.49,12.65C71.28,1.14,52-1.5,36,.72c-14.22,2-32,9.43-35.46,25a23.93,23.93,0,0,0,6,21.06c5.07,5.61,12,9.26,19.09,11.53C41.8,63.49,61.37,62.48,76.33,54c6.33-3.59,12-9.21,14.42-16.22a23.08,23.08,0,0,0-3.35-20.6,29.08,29.08,0,0,0-3.91-4.52Zm6.15,21.44C87,49.14,70,56.46,56.55,58.55c-15.4,2.4-34,.08-46.06-10.59C5,43.08,1.38,36.18,2.08,28.68,2.72,21.76,7,16,12.4,11.88,24.6,2.6,41.91.51,56.68,2.86,70.63,5.07,88.31,12.92,89.83,29a19,19,0,0,1-.19,5.06C88.14,42.56,90.85,27.15,89.64,34.08Z"/>
    <path d="M74.52,30.35C74.47,28.64,73.24,27,72,25.76a18.47,18.47,0,0,0-3.23-2.55c-.81-.51-3.42-2.37-4.18-2.06L64.7,21a49.16,49.16,0,0,0-37.54,0l.07.17L27.15,21c-3.85,1.76-8.91,4.54-9.77,9-.62,3.19,2.75,6.31,5.36,8,5.91,3.83,13.12,5.5,20.13,5.93a48.12,48.12,0,0,0,21.84-3.53,22.94,22.94,0,0,0,7.58-5C73.36,34.21,75.08,31.84,74.52,30.35ZM35.46,40.88a34.34,34.34,0,0,1-11.66-4.6,11.57,11.57,0,0,1-4-4,3.59,3.59,0,0,1,.61-4.07c2.24-3,6.05-4.85,9.48-6.11a44.47,44.47,0,0,1,11.85-2.53c7.93-.63,16.63.38,23.77,4.05,2.48,1.27,7.47,4,7,7.45-.24,1.86-2.07,3.46-3.47,4.54a23.85,23.85,0,0,1-5.44,3.07,48.28,48.28,0,0,1-28.14,2.21Z"/>
  </g>
</svg>
