<svg xmlns="http://www.w3.org/2000/svg" width="89.14" height="92" viewBox="0 0 89.14 92">
  <title>Blackspike_Dodecahedron</title>
  <path d="M89.07,34.37l-4.6-11.25a1,1,0,0,0-.31-.41L57.23,1.85a1,1,0,0,0-.48-.2L44.71,0a1,1,0,0,0-.51.07L12.67,13a1,1,0,0,0-.41.31L4.81,22.89a1,1,0,0,0-.2.48L0,57.12a1,1,0,0,0,.07.51l4.6,11.25a1,1,0,0,0,.31.41L31.92,90.15a1,1,0,0,0,.48.2l12,1.64h.13a1,1,0,0,0,.38-.07L76.48,79a1,1,0,0,0,.41-.31l7.44-9.61a1,1,0,0,0,.2-.48l4.6-33.75A1,1,0,0,0,89.07,34.37ZM82.4,23.88l-7,25.31-30.09-4.1L33.78,17,56.53,3.84Zm-56,47.2,18.6-24,30.09,4.1V77.44L44.81,89.82ZM13.67,14.72,44.7,2l8.88,1.21L32.14,15.61l-24,6.19ZM6.5,24.3l25.43-6.57L43.43,45.84l-18.6,24L2.08,56.72ZM6.42,67.87,3,59.58,24.47,72,41.81,89.61,32.93,88.4Zm76.16.23L77.1,75.18V50.44l6.62-23.85,3.39,8.3Z"/>
</svg>
